<?xml version="1.0" encoding="utf-8"?>
<!-- Generator: Adobe Illustrator 16.0.0, SVG Export Plug-In . SVG Version: 6.00 Build 0)  -->
<!DOCTYPE svg PUBLIC "-//W3C//DTD SVG 1.1//EN" "http://www.w3.org/Graphics/SVG/1.1/DTD/svg11.dtd">
<svg version="1.1" id="Layer_2" xmlns="http://www.w3.org/2000/svg" xmlns:xlink="http://www.w3.org/1999/xlink" x="0px" y="0px"
	 width="1690px" height="168.25px" viewBox="0 0 1690 168.25" enable-background="new 0 0 1690 168.25" xml:space="preserve">
<pattern  x="760.5" y="184.25" width="55" height="67" patternUnits="userSpaceOnUse" id="New_Pattern" viewBox="12.236 -79.236 55 67" overflow="visible">
	<g>
		<polygon fill="none" points="12.236,-79.236 67.236,-79.236 67.236,-12.236 12.236,-12.236 		"/>
		<g>
			<g>
				<path d="M79.219-12.236c0,6.618-5.365,11.983-11.982,11.983S55.254-5.618,55.254-12.236S60.619-24.22,67.236-24.22
					S79.219-18.854,79.219-12.236z"/>
				<path fill="#FFFFFF" d="M75.889-3.584c2.311-2.311,3.584-5.384,3.584-8.652s-1.273-6.342-3.584-8.652
					c-2.312-2.311-5.384-3.584-8.652-3.584s-6.341,1.273-8.652,3.584C56.273-18.578,55-15.505,55-12.236s1.273,6.342,3.584,8.652
					C60.896-1.273,63.968,0,67.236,0S73.577-1.273,75.889-3.584z M78.966-12.236c0,6.468-5.262,11.73-11.729,11.73
					s-11.729-5.263-11.729-11.73s5.262-11.73,11.729-11.73S78.966-18.704,78.966-12.236z"/>
			</g>
			<path fill="#FFFFFF" d="M68.875-21.203c-0.063,0.274-0.17,0.489-0.318,0.644c-0.115,0.108-0.248,0.163-0.403,0.163
				c-0.103,0-0.274-0.063-0.515-0.189c-0.819-0.411-1.648-0.617-2.49-0.617c-1.082,0-2.08,0.268-2.992,0.803
				c-0.913,0.535-1.63,1.289-2.15,2.262c-0.521,0.973-0.781,2.041-0.781,3.203c0,1.441,0.396,2.695,1.186,3.76
				c1.058,1.432,2.552,2.146,4.481,2.146c1.069,0,1.994-0.24,2.771-0.721c0.778-0.481,1.46-1.239,2.044-2.275l-0.267-0.172
				c-0.691,0.961-1.327,1.604-1.905,1.928c-0.578,0.323-1.246,0.484-2,0.484c-0.871,0-1.645-0.206-2.323-0.618
				c-0.678-0.412-1.186-1.004-1.523-1.776c-0.338-0.773-0.507-1.687-0.507-2.739c0-1.276,0.179-2.344,0.537-3.202
				c0.357-0.859,0.849-1.484,1.472-1.876c0.625-0.392,1.323-0.589,2.095-0.589c0.922,0,1.712,0.262,2.37,0.781
				c0.658,0.521,1.164,1.374,1.52,2.56h0.266l-0.266-3.958H68.875z"/>
			<path fill="#FFFFFF" d="M65.598-3.27c0.063-0.274,0.17-0.489,0.318-0.644c0.115-0.108,0.248-0.163,0.403-0.163
				c0.103,0,0.274,0.063,0.515,0.189c0.819,0.411,1.648,0.617,2.49,0.617c1.082,0,2.08-0.268,2.992-0.803
				c0.913-0.535,1.63-1.289,2.15-2.262c0.521-0.973,0.781-2.041,0.781-3.203c0-1.441-0.396-2.695-1.186-3.76
				c-1.058-1.432-2.552-2.146-4.481-2.146c-1.069,0-1.994,0.24-2.772,0.721c-0.777,0.481-1.459,1.239-2.043,2.275l0.267,0.172
				c0.691-0.961,1.327-1.604,1.905-1.928c0.578-0.323,1.246-0.484,2-0.484c0.871,0,1.645,0.206,2.322,0.618
				c0.679,0.412,1.187,1.004,1.524,1.776c0.338,0.773,0.507,1.687,0.507,2.739c0,1.276-0.179,2.344-0.537,3.202
				c-0.357,0.859-0.849,1.484-1.472,1.876c-0.625,0.392-1.323,0.589-2.095,0.589c-0.922,0-1.712-0.262-2.37-0.781
				c-0.658-0.521-1.164-1.374-1.52-2.56h-0.266l0.266,3.958H65.598z"/>
		</g>
		<g>
			<g>
				<path d="M24.219-12.236c0,6.618-5.365,11.983-11.982,11.983S0.254-5.618,0.254-12.236S5.619-24.22,12.236-24.22
					S24.219-18.854,24.219-12.236z"/>
				<path fill="#FFFFFF" d="M20.889-3.584c2.311-2.311,3.584-5.384,3.584-8.652s-1.273-6.342-3.584-8.652
					c-2.312-2.311-5.384-3.584-8.652-3.584s-6.341,1.273-8.652,3.584C1.273-18.578,0-15.505,0-12.236s1.273,6.342,3.584,8.652
					C5.896-1.273,8.968,0,12.236,0S18.577-1.273,20.889-3.584z M23.966-12.236c0,6.468-5.262,11.73-11.729,11.73
					S0.507-5.769,0.507-12.236s5.262-11.73,11.729-11.73S23.966-18.704,23.966-12.236z"/>
			</g>
			<path fill="#FFFFFF" d="M13.875-21.203c-0.063,0.274-0.17,0.489-0.318,0.644c-0.115,0.108-0.248,0.163-0.403,0.163
				c-0.103,0-0.274-0.063-0.515-0.189c-0.819-0.411-1.648-0.617-2.49-0.617c-1.082,0-2.08,0.268-2.992,0.803
				c-0.913,0.535-1.63,1.289-2.15,2.262c-0.521,0.973-0.781,2.041-0.781,3.203c0,1.441,0.396,2.695,1.186,3.76
				c1.058,1.432,2.552,2.146,4.481,2.146c1.069,0,1.994-0.24,2.771-0.721c0.778-0.481,1.46-1.239,2.044-2.275l-0.267-0.172
				c-0.691,0.961-1.327,1.604-1.905,1.928c-0.578,0.323-1.246,0.484-2,0.484c-0.871,0-1.645-0.206-2.323-0.618
				c-0.678-0.412-1.186-1.004-1.523-1.776c-0.338-0.773-0.507-1.687-0.507-2.739c0-1.276,0.179-2.344,0.537-3.202
				c0.357-0.859,0.849-1.484,1.472-1.876c0.625-0.392,1.323-0.589,2.095-0.589c0.922,0,1.712,0.262,2.37,0.781
				c0.658,0.521,1.164,1.374,1.52,2.56h0.266l-0.266-3.958H13.875z"/>
			<path fill="#FFFFFF" d="M10.598-3.27c0.063-0.274,0.17-0.489,0.318-0.644c0.115-0.108,0.248-0.163,0.403-0.163
				c0.103,0,0.274,0.063,0.515,0.189c0.819,0.411,1.648,0.617,2.49,0.617c1.082,0,2.08-0.268,2.992-0.803
				c0.913-0.535,1.63-1.289,2.15-2.262c0.521-0.973,0.781-2.041,0.781-3.203c0-1.441-0.396-2.695-1.186-3.76
				c-1.058-1.432-2.552-2.146-4.481-2.146c-1.069,0-1.994,0.24-2.772,0.721c-0.777,0.481-1.459,1.239-2.043,2.275l0.267,0.172
				c0.691-0.961,1.327-1.604,1.905-1.928c0.578-0.323,1.246-0.484,2-0.484c0.871,0,1.645,0.206,2.322,0.618
				c0.679,0.412,1.187,1.004,1.524,1.776c0.338,0.773,0.507,1.687,0.507,2.739c0,1.276-0.179,2.344-0.537,3.202
				c-0.357,0.859-0.849,1.484-1.472,1.876c-0.625,0.392-1.323,0.589-2.095,0.589c-0.922,0-1.712-0.262-2.37-0.781
				c-0.658-0.521-1.164-1.374-1.52-2.56h-0.266l0.266,3.958H10.598z"/>
		</g>
		<g>
			<g>
				<path d="M51.719-45.736c0,6.618-5.365,11.983-11.982,11.983s-11.982-5.365-11.982-11.983S33.119-57.72,39.736-57.72
					S51.719-52.354,51.719-45.736z"/>
				<path fill="#FFFFFF" d="M48.389-37.084c2.311-2.311,3.584-5.384,3.584-8.652s-1.273-6.342-3.584-8.652
					c-2.312-2.311-5.384-3.584-8.652-3.584s-6.341,1.273-8.652,3.584c-2.311,2.311-3.584,5.384-3.584,8.652s1.273,6.342,3.584,8.652
					c2.312,2.311,5.384,3.584,8.652,3.584S46.077-34.773,48.389-37.084z M51.466-45.736c0,6.468-5.262,11.73-11.729,11.73
					s-11.729-5.263-11.729-11.73s5.262-11.73,11.729-11.73S51.466-52.204,51.466-45.736z"/>
			</g>
			<path fill="#FFFFFF" d="M41.375-54.703c-0.063,0.274-0.17,0.489-0.318,0.644c-0.115,0.108-0.248,0.163-0.403,0.163
				c-0.103,0-0.274-0.063-0.515-0.189c-0.819-0.411-1.648-0.617-2.49-0.617c-1.082,0-2.08,0.268-2.992,0.803
				c-0.913,0.535-1.63,1.289-2.15,2.262c-0.521,0.973-0.781,2.041-0.781,3.203c0,1.441,0.396,2.695,1.186,3.76
				c1.058,1.432,2.552,2.146,4.481,2.146c1.069,0,1.994-0.24,2.771-0.721c0.778-0.481,1.46-1.239,2.044-2.275l-0.267-0.172
				c-0.691,0.961-1.327,1.604-1.905,1.928c-0.578,0.323-1.246,0.484-2,0.484c-0.871,0-1.645-0.206-2.323-0.618
				c-0.678-0.412-1.186-1.004-1.523-1.776c-0.338-0.773-0.507-1.687-0.507-2.739c0-1.276,0.179-2.344,0.537-3.202
				c0.357-0.859,0.849-1.484,1.472-1.876c0.625-0.392,1.323-0.589,2.095-0.589c0.922,0,1.712,0.262,2.37,0.781
				c0.658,0.521,1.164,1.374,1.52,2.56h0.266l-0.266-3.958H41.375z"/>
			<path fill="#FFFFFF" d="M38.098-36.77c0.063-0.274,0.17-0.489,0.318-0.644c0.115-0.108,0.248-0.163,0.403-0.163
				c0.103,0,0.274,0.063,0.515,0.189c0.819,0.411,1.648,0.617,2.49,0.617c1.082,0,2.08-0.268,2.992-0.803
				c0.913-0.535,1.63-1.289,2.15-2.262c0.521-0.973,0.781-2.041,0.781-3.203c0-1.441-0.396-2.695-1.186-3.76
				c-1.058-1.432-2.552-2.146-4.481-2.146c-1.069,0-1.994,0.24-2.772,0.721c-0.777,0.481-1.459,1.239-2.043,2.275l0.267,0.172
				c0.691-0.961,1.327-1.604,1.905-1.928c0.578-0.323,1.246-0.484,2-0.484c0.871,0,1.645,0.206,2.322,0.618
				c0.679,0.412,1.187,1.004,1.524,1.776c0.338,0.773,0.507,1.687,0.507,2.739c0,1.276-0.179,2.344-0.537,3.202
				c-0.357,0.859-0.849,1.484-1.472,1.876c-0.625,0.392-1.323,0.589-2.095,0.589c-0.922,0-1.712-0.262-2.37-0.781
				c-0.658-0.521-1.164-1.374-1.52-2.56h-0.266l0.266,3.958H38.098z"/>
		</g>
		<g>
			<g>
				<path d="M79.219-79.236c0,6.618-5.365,11.983-11.982,11.983s-11.982-5.365-11.982-11.983S60.619-91.22,67.236-91.22
					S79.219-85.854,79.219-79.236z"/>
				<path fill="#FFFFFF" d="M75.889-70.584c2.311-2.311,3.584-5.384,3.584-8.652s-1.273-6.342-3.584-8.652
					c-2.312-2.311-5.384-3.584-8.652-3.584s-6.341,1.273-8.652,3.584C56.273-85.578,55-82.505,55-79.236s1.273,6.342,3.584,8.652
					C60.896-68.273,63.968-67,67.236-67S73.577-68.273,75.889-70.584z M78.966-79.236c0,6.468-5.262,11.73-11.729,11.73
					s-11.729-5.263-11.729-11.73s5.262-11.73,11.729-11.73S78.966-85.704,78.966-79.236z"/>
			</g>
			<path fill="#FFFFFF" d="M68.875-88.203c-0.063,0.274-0.17,0.489-0.318,0.644c-0.115,0.108-0.248,0.163-0.403,0.163
				c-0.103,0-0.274-0.063-0.515-0.189c-0.819-0.411-1.648-0.617-2.49-0.617c-1.082,0-2.08,0.268-2.992,0.803
				c-0.913,0.535-1.63,1.289-2.15,2.262c-0.521,0.973-0.781,2.041-0.781,3.203c0,1.441,0.396,2.695,1.186,3.76
				c1.058,1.432,2.552,2.146,4.481,2.146c1.069,0,1.994-0.24,2.771-0.721c0.778-0.481,1.46-1.239,2.044-2.275l-0.267-0.172
				c-0.691,0.961-1.327,1.604-1.905,1.928c-0.578,0.323-1.246,0.484-2,0.484c-0.871,0-1.645-0.206-2.323-0.618
				c-0.678-0.412-1.186-1.004-1.523-1.776c-0.338-0.773-0.507-1.687-0.507-2.739c0-1.276,0.179-2.344,0.537-3.202
				c0.357-0.859,0.849-1.484,1.472-1.876c0.625-0.392,1.323-0.589,2.095-0.589c0.922,0,1.712,0.262,2.37,0.781
				c0.658,0.521,1.164,1.374,1.52,2.56h0.266l-0.266-3.958H68.875z"/>
			<path fill="#FFFFFF" d="M65.598-70.27c0.063-0.274,0.17-0.489,0.318-0.644c0.115-0.108,0.248-0.163,0.403-0.163
				c0.103,0,0.274,0.063,0.515,0.189c0.819,0.411,1.648,0.617,2.49,0.617c1.082,0,2.08-0.268,2.992-0.803
				c0.913-0.535,1.63-1.289,2.15-2.262c0.521-0.973,0.781-2.041,0.781-3.203c0-1.441-0.396-2.695-1.186-3.76
				c-1.058-1.432-2.552-2.146-4.481-2.146c-1.069,0-1.994,0.24-2.772,0.721c-0.777,0.481-1.459,1.239-2.043,2.275l0.267,0.172
				c0.691-0.961,1.327-1.604,1.905-1.928c0.578-0.323,1.246-0.484,2-0.484c0.871,0,1.645,0.206,2.322,0.618
				c0.679,0.412,1.187,1.004,1.524,1.776c0.338,0.773,0.507,1.687,0.507,2.739c0,1.276-0.179,2.344-0.537,3.202
				c-0.357,0.859-0.849,1.484-1.472,1.876c-0.625,0.392-1.323,0.589-2.095,0.589c-0.922,0-1.712-0.262-2.37-0.781
				c-0.658-0.521-1.164-1.374-1.52-2.56h-0.266l0.266,3.958H65.598z"/>
		</g>
		<g>
			<g>
				<path d="M24.219-79.236c0,6.618-5.365,11.983-11.982,11.983S0.254-72.618,0.254-79.236S5.619-91.22,12.236-91.22
					S24.219-85.854,24.219-79.236z"/>
				<path fill="#FFFFFF" d="M20.889-70.584c2.311-2.311,3.584-5.384,3.584-8.652s-1.273-6.342-3.584-8.652
					c-2.312-2.311-5.384-3.584-8.652-3.584s-6.341,1.273-8.652,3.584C1.273-85.578,0-82.505,0-79.236s1.273,6.342,3.584,8.652
					C5.896-68.273,8.968-67,12.236-67S18.577-68.273,20.889-70.584z M23.966-79.236c0,6.468-5.262,11.73-11.729,11.73
					S0.507-72.769,0.507-79.236s5.262-11.73,11.729-11.73S23.966-85.704,23.966-79.236z"/>
			</g>
			<path fill="#FFFFFF" d="M13.875-88.203c-0.063,0.274-0.17,0.489-0.318,0.644c-0.115,0.108-0.248,0.163-0.403,0.163
				c-0.103,0-0.274-0.063-0.515-0.189c-0.819-0.411-1.648-0.617-2.49-0.617c-1.082,0-2.08,0.268-2.992,0.803
				c-0.913,0.535-1.63,1.289-2.15,2.262c-0.521,0.973-0.781,2.041-0.781,3.203c0,1.441,0.396,2.695,1.186,3.76
				c1.058,1.432,2.552,2.146,4.481,2.146c1.069,0,1.994-0.24,2.771-0.721c0.778-0.481,1.46-1.239,2.044-2.275l-0.267-0.172
				c-0.691,0.961-1.327,1.604-1.905,1.928c-0.578,0.323-1.246,0.484-2,0.484c-0.871,0-1.645-0.206-2.323-0.618
				c-0.678-0.412-1.186-1.004-1.523-1.776c-0.338-0.773-0.507-1.687-0.507-2.739c0-1.276,0.179-2.344,0.537-3.202
				c0.357-0.859,0.849-1.484,1.472-1.876c0.625-0.392,1.323-0.589,2.095-0.589c0.922,0,1.712,0.262,2.37,0.781
				c0.658,0.521,1.164,1.374,1.52,2.56h0.266l-0.266-3.958H13.875z"/>
			<path fill="#FFFFFF" d="M10.598-70.27c0.063-0.274,0.17-0.489,0.318-0.644c0.115-0.108,0.248-0.163,0.403-0.163
				c0.103,0,0.274,0.063,0.515,0.189c0.819,0.411,1.648,0.617,2.49,0.617c1.082,0,2.08-0.268,2.992-0.803
				c0.913-0.535,1.63-1.289,2.15-2.262c0.521-0.973,0.781-2.041,0.781-3.203c0-1.441-0.396-2.695-1.186-3.76
				c-1.058-1.432-2.552-2.146-4.481-2.146c-1.069,0-1.994,0.24-2.772,0.721c-0.777,0.481-1.459,1.239-2.043,2.275l0.267,0.172
				c0.691-0.961,1.327-1.604,1.905-1.928c0.578-0.323,1.246-0.484,2-0.484c0.871,0,1.645,0.206,2.322,0.618
				c0.679,0.412,1.187,1.004,1.524,1.776c0.338,0.773,0.507,1.687,0.507,2.739c0,1.276-0.179,2.344-0.537,3.202
				c-0.357,0.859-0.849,1.484-1.472,1.876c-0.625,0.392-1.323,0.589-2.095,0.589c-0.922,0-1.712-0.262-2.37-0.781
				c-0.658-0.521-1.164-1.374-1.52-2.56h-0.266l0.266,3.958H10.598z"/>
		</g>
	</g>
</pattern>
<pattern  x="760.5" y="184.25" width="54" height="54" patternUnits="userSpaceOnUse" id="USGS_21_Intricate_Surface_2" viewBox="10.5 -67.313 54 54" overflow="visible">
	<g>
		<polygon fill="none" points="10.5,-67.313 64.5,-67.313 64.5,-13.313 10.5,-13.313 		"/>
		<g>
			<path fill="#3D3D3D" d="M33.076-11.83c-0.753,0.501-1.313,4.687-2.063,5.25c-0.295,0.221-0.751,0.687-0.75,0.937
				c0.001,0.502-0.272,0.438-0.271,0.939c0.004,1.002-0.741,2.31-2.117,2.016c-0.362-0.078-0.666-0.989,1.377-2.146
				c0.22-0.125-0.021-0.913,0.14-1.338c1.996-5.283,3.871-9.597,4.435-8.283L33.076-11.83z"/>
			<path fill="#3D3D3D" d="M38.828-10.827c-0.164-0.479-0.429-0.758-0.435-1.24c-1.097,0.226-2.188,0.451-3.284,0.678
				c-0.895-1.014,1.115-1.394,2.486-2.055c0.502-0.243,2.156-1.3,2.705-1.415C40.115-13.768,39.147-12.14,38.828-10.827z"/>
			<path fill="#3D3D3D" d="M59.25-8.25c0.204,0.728-0.185,1.317-0.765,1.404c-0.861,0.129-1.988,0.417-2.011,0.856
				C56.399-4.413,55.282-3.43,54-3c1.203-2.297,2.925-3.813,5.167-5.369c0.247-0.171-0.052-0.941,0.149-1.348
				c0.656-1.325,2.653,0.124,2.843-2.29c0.018-0.232-0.408-0.493-0.659-0.743c2.107,0.601,1.857-2.129,3.75-2.25c0,0.5,0,1,0,1.5
				c-0.885-0.152-1.527,0.373-2.259,0.733C60.679-11.626,63.084-8.717,59.25-8.25z"/>
			<path fill="#3D3D3D" d="M14.437-6.75c-0.348-1.95,2.648-5.848,3.563-7.5c0.499,0.5,0.327,1.283,0.25,1.687
				c-0.379,1.979-2.632,3.286-2.614,5.851c-0.562,0.938-0.498,1.56-2.136,1.463L14.437-6.75z"/>
			<path fill="#3D3D3D" d="M21.937-12c0.152-0.884-0.346-1.551-0.75-2.25c0.729-0.204,1.338,0.195,1.397,0.761
				C22.584-12.938,22.188-12.5,21.937-12z"/>
			<path fill="#3D3D3D" d="M12.75-12.188c-1.791-0.236-0.231-1.589-0.75-2.25C14.191-14.333,11.434-12.584,12.75-12.188z"/>
			<path fill="#3D3D3D" d="M24.102-11.111c1.653-1.237,2.264-4.912,4.148-5.702c-1.522,1.153-1.673,4.886-2.883,6.19
				c-2.315,2.494-5.573,3.817-7.288,6.917C17.458-2.585,18.777-0.996,17.25,0c-0.256-2.43-0.23-5.029,1.657-6.556
				C20.86-8.136,22.113-9.623,24.102-11.111z"/>
			<path fill="#3D3D3D" d="M47-11.563c-0.437,0.486-1.178-0.079-1.32-0.676c-0.232-0.978-1.202-2.607-0.077-2.982
				c0.86,0.812,1.926,0.797,3,0.75C46.02-14.512,47.717-12.361,47-11.563z"/>
			<path fill="#3D3D3D" d="M54.468-10.864c0.162,0.302,0.749-0.096,1.032-0.449c-1.064-0.605,0.113-2.169-1.198-2.395
				c-0.481-0.082-1.036,0.484-1.726,0.382C53.146-12.226,53.86-11.994,54.468-10.864z"/>
		</g>
		<g>
			<path fill="#3D3D3D" d="M5.25-8.25c0.204,0.728-0.185,1.317-0.765,1.404C3.624-6.717,2.497-6.429,2.475-5.989
				C2.399-4.413,1.282-3.43,0-3c1.203-2.297,2.925-3.813,5.167-5.369C5.414-8.54,5.115-9.311,5.316-9.717
				c0.656-1.325,2.653,0.124,2.843-2.29C8.177-12.239,7.751-12.5,7.5-12.75c2.107,0.601,1.857-2.129,3.75-2.25c0,0.5,0,1,0,1.5
				c-0.885-0.152-1.527,0.373-2.259,0.733C6.679-11.626,9.084-8.717,5.25-8.25z"/>
		</g>
		<g>
			<path fill="#3D3D3D" d="M63.768-24.136c0.834-0.31,1.722,0.694,2.134,0.495c2.148-1.04,1.962-3.565,4.674-1.393
				c0.033,0.026,0.61-0.427,0.577-0.639c-0.122-0.764-0.908-1.411-0.603-2.247c0.215-0.585,0.802-0.704,1.405-0.904
				c1.86-0.616-0.467-2.492,2.193-3.818c0.304-0.15,0.336-1.411-0.017-1.972c-0.791-1.258-2.339-0.793-3.632-0.825
				c1.308,0.116,2.193-0.611,3-1.5c-0.253,0.502-0.499,1.001-0.75,1.5c1,0.501,1.998,1.001,3,1.5
				c-0.502,0.253-1.228,0.405-1.385,0.797c-0.348,0.869,0.154,2.075-0.251,2.887c-0.102,0.202-1.049-0.102-1.266,0.151
				c-1.217,1.429-0.594,3.975-1.825,4.847c-1.999,1.414-6.05,0.95-7.025,4.146c-0.171,0.559,1.139,1.27,2.008,1.322
				c0.988,0.059,1.853-0.679,2.244-2.149c-0.153,0.885,0.219,1.863,0.81,2.093c1.468,0.571,1.361-2.45,2.898-1.963
				c0.379,0.12,0.791,0.949,0.665,1.328c-0.128,0.382-0.874,0.709-1.373,0.708c-0.253,0-0.585-0.616-0.707-0.563
				c-1.537,0.663-3.58,0.469-4.474,2.185C65.86-17.75,66-17.188,66-16.688c-0.816-0.054-2.15,0.286-2.06-0.732
				c0.086-0.959,0.971-1.983,0.461-2.966c-0.215-0.41-0.902-0.55-1.401-0.802L63.768-24.136z"/>
			<path fill="#3D3D3D" d="M65.25-33.188c-1.593,0.171-0.684-0.906-0.75-1.5C64.752-34.187,64.998-33.688,65.25-33.188z"/>
			<path fill="#3D3D3D" d="M64.875-57.938c-0.102,2.447-0.171,1.646-2.625,2.438c0.501-0.252,1.989-0.945,2.103-1.321
				c0.239-0.777-0.086-1.137,0.319-1.835c-0.187-0.75-1.481-0.749-0.797-1.782c1.012-1.528,0.212-3.746,2.134-4.534
				c0.433-0.177,0.24,0.473,0.741,0.473C66.75-62.438,64.966-60.149,64.875-57.938z"/>
			<path fill="#3D3D3D" d="M63-30c0.517-1.465,1.826-1.348,3-1.5C65.267-30.464,64.102-30.294,63-30z"/>
		</g>
		<g>
			<path fill="#3D3D3D" d="M16.125-38.25c-0.231,0.077-0.491,0.025-0.742,0.025c0.358-0.847,0.724-1.684,1.5-2.25
				c0.253,0.501,0.749,1.078,0.623,1.457C17.379-38.636,16.656-38.428,16.125-38.25z"/>
			<path fill="#3D3D3D" d="M33.076-65.83c-0.753,0.501-1.313,4.687-2.063,5.25c-0.295,0.221-0.751,0.687-0.75,0.937
				c0.001,0.502-0.272,0.438-0.271,0.939c0.004,1.002-0.741,2.31-2.117,2.016c-0.362-0.078-0.666-0.989,1.377-2.146
				c0.22-0.125-0.021-0.913,0.14-1.338c1.996-5.283,3.871-9.597,4.435-8.283L33.076-65.83z"/>
			<path fill="#3D3D3D" d="M24.764-57.327c-0.717-0.244-1.691-1.074-1.594-1.323c0.917-2.327,1.815-3.304,2.752-3.342
				c0.937-0.039-1.216,1.439-1.7,2.473c-0.481,1.034,1.942,2.472,1.519,3.089C25.315-55.812,25.276-56.748,24.764-57.327z"/>
			<path fill="#3D3D3D" d="M22.5-56.25c-0.583,1.917-0.394,2.106-3,3c0.758-0.233,0.561,0.058,0.75-2.25
				C20.273-55.793,21.999-56,22.5-56.25z"/>
			<path fill="#3D3D3D" d="M20.233-47.256c-0.206,0.523-0.451,1.32-0.748,1.347c-2,0.181-2.402,1.715-2.985,3.159
				c1.305,0.361,2.234,1.664,3.75,1.5c-0.7,0.403-1.494,1.134-2.167,0.637c-0.251-0.184,0.019-1.183-0.135-1.236
				c-2.87-0.979-2.15-3.137-0.581-4.518c0.161-0.142,1.026,0.636,1.304,0.479c1.256-0.713-0.484-4.55,0.829-3.611
				c0.651,0.695,1.681,1.453,2.833-0.122C22.832-50.304,22.5-51.5,22.5-52.5c0.375-0.75,2.064-0.322,2.101,0.754
				C24.69-49.167,21.138-49.55,20.233-47.256z"/>
			<path fill="#3D3D3D" d="M29.238-49.509c-0.229,0.286-0.488,0.676-0.738,0.676c-0.254-0.001-0.499-0.417-0.75-0.667
				c0.501-0.252,1.316-0.471,1.339-0.764C29.209-51.72,28.862-53.417,27-54C30.036-54.914,30.885-51.569,29.238-49.509z"/>
			<path fill="#3D3D3D" d="M32.423-47.986C32.732-51.884,31.875-54,36-52.5c0.937,1.312-1.815,0.207-2.115,0.816
				c-0.15,0.308,1.679,1.054,1.552,1.434c-0.127,0.382-2.106,0.388-2.346,0.803c-0.43,0.749,0.254,1.499,0.659,2.197
				C33.248-47.502,32.406-47.774,32.423-47.986z"/>
			<path fill="#3D3D3D" d="M36.706-47.353C36.581-47.3,36.251-47.75,36-48c0.799-0.426,1.305-2.111,2.078-1.33
				C38.816-48.584,37.5-47.063,36.706-47.353z"/>
			<path fill="#3D3D3D" d="M26-40.563c-0.437,0.486-1.178-0.079-1.32-0.676c-0.232-0.978-1.202-2.607-0.077-2.982
				c0.86,0.812,1.926,0.797,3,0.75C25.02-43.512,26.717-41.361,26-40.563z"/>
			<path fill="#3D3D3D" d="M41.5-51.188c2.787-0.378,3.054-2.781,4.58-4.227c0.268-0.256,1.033,0.082,1.354-0.168
				c0.873-0.684,1.027-1.801,0.816-2.917c1.28,1.658,2.631-0.619,3.552,0.217c1.681,1.527,1.512,3.999,3.948,5.033
				c-0.393,1.905-2.088,2.941-3,4.5c0.813-2.625,2.844-5.434-0.75-6.75c0.252-0.252,0.666-0.5,0.666-0.75
				c-0.001-0.501-0.32-1.225-0.714-1.387c-0.942-0.387-2.301-0.311-2.84,0.697c-0.949,1.772-1.517,1.914-2.896,3.177
				c-0.67,0.614,0.03,2.41-0.966,3.513c-0.253-0.252-0.633-0.83-0.731-0.65c-0.957,1.775-2.269,1.587-2.644,0.462L41.5-51.188z"/>
			<path fill="#3D3D3D" d="M40.933-54.992L40.933-54.992c-0.196-0.152-1.256,0.411-1.27,0.687c-0.079,1.62-0.385,3.276-2.413,2.992
				c2.408-1.957,3.097-4.916,4.407-7.547c0.444-0.896-2.66-3.141-1.407-3.89l2.25,0.937c0.652-0.695,1.422-1.159,3,0
				c-1.074-0.045-2.33-0.198-2.894,0.81c-0.926,1.654-0.122,2.583-0.267,4.428c-0.022,0.292-1.074,0.42-1.22,0.807
				C41.035-55.544,40.924-55.198,40.933-54.992z"/>
			<path fill="#3D3D3D" d="M38.828-64.827c-0.164-0.479-0.429-0.758-0.435-1.24c-1.097,0.226-2.188,0.451-3.284,0.678
				c-0.895-1.014,1.115-1.394,2.486-2.055c0.502-0.243,2.156-1.3,2.705-1.415C40.115-67.768,39.147-66.14,38.828-64.827z"/>
			<path fill="#3D3D3D" d="M48.75-26.25c0.479-1.062,1.434-0.696,2.25-0.75C50.476-26.066,49.638-26.088,48.75-26.25z"/>
			<path fill="#3D3D3D" d="M58.066-65.243c-0.454,4.307-0.565-0.007-0.816-0.007c0.714-0.283,1.751-0.248,1.5-1.5
				C58.497-66.248,58.121-65.77,58.066-65.243z"/>
			<path fill="#3D3D3D" d="M59.25-62.25c0.204,0.728-0.185,1.317-0.765,1.404c-0.861,0.129-1.988,0.417-2.011,0.856
				C56.399-58.413,55.282-57.43,54-57c1.203-2.297,2.925-3.813,5.167-5.369c0.247-0.171-0.052-0.941,0.149-1.348
				c0.656-1.325,2.653,0.124,2.843-2.29c0.018-0.232-0.408-0.493-0.659-0.743c2.107,0.601,1.857-2.129,3.75-2.25c0,0.5,0,1,0,1.5
				c-0.885-0.152-1.527,0.373-2.259,0.733C60.679-65.626,63.084-62.717,59.25-62.25z"/>
			<path fill="#3D3D3D" d="M61.444-56.263c-0.205,0.914-0.592,1.96-1.472,2.12c-0.697,0.127-1.473,1.069-2.223-1.357
				c2.328,0.744,2.987-1.209,3.75-3C61.5-57.747,61.61-57.006,61.444-56.263z"/>
			<path fill="#3D3D3D" d="M57.817-48.717c-0.203,0.407-0.067,0.967-0.067,1.467c-0.811-0.86-1.135-2.129-0.582-2.875
				c0.277-0.375,1.33-0.125,2.082-0.125C58.748-49.748,58.121-49.325,57.817-48.717z"/>
			<path fill="#3D3D3D" d="M45.25-45c0.048-0.498,0.256-1.244,0.063-1.364c-0.769-0.482-1.91-0.322-2.905-0.419
				c0.275-0.226,0.517-0.546,0.83-0.623c0.865-0.216,1.724,0.866,2.026,0.691c1.949-1.123,4.165-4.702,5.788-6.325
				c0.227,0.275-0.964,2.604-1.012,2.665C48.237-48.132,46.983-47.167,45.25-45z"/>
			<path fill="#3D3D3D" d="M49.284-43.081c-0.662-0.428-1.983-0.403-1.348-1.469c1.285-2.156,4.122-2.178,5.875-3.825
				c0.438,2.112,3.158,1.61,4.415,3.072c0.255,0.296,0.01,0.93,0.123,1.419c0.179,0.766,0.21,1.761,1.462,1.509
				c-0.253,0.253-0.498,0.499-0.75,0.75c-1.335-1.956-1.619,0.216-3,0c0.502-0.252,1.254-0.414,1.37-0.792
				c0.372-1.193,0.468-2.656-0.653-3.671c-0.411-0.37-1.11-0.807-1.39-0.648c-0.901,0.507-1.038,1.744-0.827,2.861
				c-1.22-1.126-1.786-3.792-3.625-2.774c-0.627,0.347-1.328,1.235-2.142,2.217c-1.094,1.326,2.428,0.937,2.017,2.808
				C50.31-42.126,49.89-42.691,49.284-43.081z"/>
			<path fill="#3D3D3D" d="M42.349-42.8c0.14,0.179,1.043-0.3,1.249-0.094c0.461,0.468,1.831,1.119,1.976,1.855
				c0.443-0.343,1.174-0.663,1.177-1.025c0.005-0.972-2.46-1.16-3.884-1.653c-0.681-0.237-1.192-1.037-1.212-1.936
				C41.846-44.671,41.795-43.517,42.349-42.8z"/>
			<path fill="#3D3D3D" d="M38.906-43.222c0.492,1.609-0.845,1.097-1.406,0.158c-0.375-0.937-0.921-3.739,1.503-3.85
				c0.241-0.01,0.495,0.412,0.747,0.663C39.222-45.801,37.197-48.809,38.906-43.222z"/>
			<path fill="#3D3D3D" d="M14.437-60.75c-0.348-1.95,2.648-5.848,3.563-7.5c0.499,0.5,0.327,1.283,0.25,1.687
				c-0.379,1.979-2.632,3.286-2.614,5.851c-0.562,0.938-0.498,1.56-2.136,1.463L14.437-60.75z"/>
			<path fill="#3D3D3D" d="M11.75-52.938c2.295-1.262-0.025-1.397,2.687-2.562c1.313,0.375,1.604,1.98,1.688,3.375
				c0.018,0.321-0.375,1.375-0.375,1.875c-0.253-0.501-0.496-0.993-0.751-1.5c-0.256-0.509-0.45-1.781-0.624-1.813
				C13-53.813,11.75-52.938,11.75-52.938z"/>
			<path fill="#3D3D3D" d="M27.625-64.938c0-0.501,0-0.999,0-1.5c0.699,0.405,1.365,0.903,2.25,0.75
				C29.122-65.436,28.375-65.189,27.625-64.938z"/>
			<path fill="#3D3D3D" d="M14.343-45.908c0.492,1.608-0.843,1.095-1.406,0.158c-0.375-0.938-0.92-3.741,1.505-3.85
				c0.24-0.011,0.494,0.41,0.745,0.661C14.66-48.488,12.635-51.496,14.343-45.908z"/>
			<path fill="#3D3D3D" d="M9.768-24.136c0.834-0.31,1.722,0.694,2.134,0.495c2.148-1.04,1.962-3.565,4.674-1.393
				c0.033,0.026,0.61-0.427,0.577-0.639c-0.122-0.764-0.908-1.411-0.603-2.247c0.215-0.585,0.802-0.704,1.405-0.904
				c1.86-0.616-0.467-2.492,2.193-3.818c0.304-0.15,0.336-1.411-0.017-1.972c-0.791-1.258-2.339-0.793-3.632-0.825
				c1.308,0.116,2.193-0.611,3-1.5c-0.253,0.502-0.499,1.001-0.75,1.5c1,0.501,1.998,1.001,3,1.5
				c-0.502,0.253-1.228,0.405-1.385,0.797c-0.348,0.869,0.154,2.075-0.251,2.887c-0.102,0.202-1.049-0.102-1.266,0.151
				c-1.217,1.429-0.594,3.975-1.825,4.847c-1.999,1.414-6.05,0.95-7.025,4.146c-0.171,0.559,1.139,1.27,2.008,1.322
				c0.988,0.059,1.853-0.679,2.244-2.149c-0.153,0.885,0.219,1.863,0.81,2.093c1.468,0.571,1.361-2.45,2.898-1.963
				c0.379,0.12,0.791,0.949,0.665,1.328c-0.128,0.382-0.874,0.709-1.373,0.708c-0.253,0-0.585-0.616-0.707-0.563
				c-1.537,0.663-3.58,0.469-4.474,2.185C11.86-17.75,12-17.188,12-16.688c-0.816-0.054-2.15,0.286-2.06-0.732
				c0.086-0.959,0.971-1.983,0.461-2.966c-0.215-0.41-0.902-0.55-1.401-0.802L9.768-24.136z"/>
			<path fill="#3D3D3D" d="M20.706-16.686c0.387-0.14,0.543-0.878,0.794-1.378c0.501,0.253,1,0.499,1.5,0.75
				c1.325-3.245,3.59-7.424,7.5-7.5c0,0.5,0,1,0,1.5c-0.884-0.151-1.772,0.196-2.131,0.819c-0.685,1.186,1.551,1.873-0.119,3.681
				c-0.019-1.297,0.413-3.128-0.826-3.501c-1.498-0.452-2.481,1.86-2.174,3.501c-0.5,0-1.271-0.129-1.362,0.065
				c-0.916,1.955-3.3,2.384-3.888,4.435c-1.226-1.35-3.389-1.646-3.75-3.75C18.08-18.553,19.082-16.098,20.706-16.686z"/>
			<path fill="#3D3D3D" d="M11.25-33.188c-1.593,0.171-0.684-0.906-0.75-1.5C10.752-34.187,10.998-33.688,11.25-33.188z"/>
			<path fill="#3D3D3D" d="M15.118-33.277c0.614,0.814,0.793,1.451,0.632,2.339c-0.502-0.252-1.341-0.513-1.33-0.741
				c0.074-1.667-1.505-2.867-0.92-4.509C14.536-35.455,14.455-34.156,15.118-33.277z"/>
			<path fill="#3D3D3D" d="M11.25-37.688c-0.21-1.668,1.108-0.278,1.5-0.75C12.248-38.186,11.749-37.939,11.25-37.688z"/>
			<path fill="#3D3D3D" d="M24.828-36.184c-0.132,2.545,1.818,3.956,3.672,5.245c-0.567-0.774-1.379-1.324-2.259-1.407
				c-0.229-0.021-0.491,0.574-0.741,0.574c-0.502-0.001-1.314-0.384-1.341-0.681c-0.135-1.454-0.777-2.944,0.45-4.59
				c0.155-0.209-0.358-0.896-0.609-1.396c-0.502,0.253-1.001,0.499-1.5,0.75c-0.501-1-1.001-1.998-1.5-3
				c2.275,0.321,2.593,2.988,4.5,3.75C25.247-36.686,24.843-36.447,24.828-36.184z"/>
			<path fill="#3D3D3D" d="M29.643-32.724c1.274,0.135,1.25-0.949,1.255-1.638c0.004-0.733-0.45-1.002,1.182-2.579
				c0.321-0.308,0.383-1.382,0.719-2.116c0.276,0.228,0.545,0.448,0.819,0.676c-0.475,0.298-1.153,0.506-1.316,0.931
				c-0.242,0.637,0.318,1.663-0.027,2.083c-0.575,0.695-1.817,1.063-1.793,2.57c0.004,0.232,0.661,0.528,0.62,0.634
				c-0.415,1.071-0.499,2.036-0.351,3.1C29.21-29.931,29.741-31.419,29.643-32.724z"/>
			<path fill="#3D3D3D" d="M36.967-35.535c-1.251,1.562-2.871-0.09-3.774,1.905c1.313-0.465,0.527,0.351,2.951,0.779
				c-0.059-0.558-0.292-1.403-0.094-1.519c2.432-1.402,1.169-4.491,3.041-6.387c-0.349-0.075-0.689-0.15-1.037-0.227
				c0.06,0.56-0.713,2.933-0.928,3.072C35.409-36.784,38.048-36.884,36.967-35.535z"/>
			<path fill="#3D3D3D" d="M31.647-26.619c-1.819-1.473-1.768,0.396-3.147,0.181c0.252-0.501,0.498-0.999,0.75-1.5
				c1.28,1.659,2.577-0.609,3.573,0.213C33.615-27.071,31.875-26.435,31.647-26.619z"/>
			<path fill="#3D3D3D" d="M33.127-22.605c-0.015,0.279-1.04,0.404-1.234,0.81c-1.04,2.157-0.329,2.758,0.738,4.434
				c-0.729,0.204-1.312-0.18-1.409-0.765c-0.207-1.262,0.589-1.158-0.722-2.437c-0.383-0.374,1.331-1.342,1.653-2.181
				c0.618-1.613,1.949-2.095,2.79-3.511c0.288-0.486,1.274,0.169,1.194,0.633C35.851-23.938,33.314-26.188,33.127-22.605z"/>
			<path fill="#3D3D3D" d="M33.54-59.307c-0.407-0.282,0.31-0.92,0.892-1.185c0.649,1.503,3.207,0.427,3.241,2.142
				c0.013,0.63-0.944,1.182-0.95,2.079C35.237-57.279,35.061-58.242,33.54-59.307z"/>
			<path fill="#3D3D3D" d="M39.75-26.813c0.75,1.645-1.224,1.04-1.508,1.831C37.167-26.895,40.113-25.487,39.75-26.813z"/>
			<path fill="#3D3D3D" d="M41.591-26.028c0.506,0.245,1.006,0.49,1.51,0.732c0.243-0.505,0.751-1.113,0.596-1.446
				c-1.011-2.153,0.308-4.379,0.958-6.375c0.982,0.423,1.769-0.027,2.17-0.813c0.922-1.804,2.85-4.585,3.047-6.688
				c-0.551,0.105-1.407,0.114-1.48,0.368c-0.917,3.2-3.558,8.133-7.141,8.937c-0.122,0.028-0.214,0.618-0.113,0.926
				c0.275,0.849,1.47,0.86,1.754,1.425C43.433-27.896,42.285-26.934,41.591-26.028z"/>
			<path fill="#3D3D3D" d="M39.866-35.438c0.124,0.489-0.303,1.114,0.242,1.641c0.885-2.166,0.922-4.636,3.284-6.268
				c-0.948-0.673-1.589,0.124-2.32,0.489C42.209-37.815,39.402-37.254,39.866-35.438z"/>
			<path fill="#3D3D3D" d="M44.31-20.406c-0.594,1.152,1.458,2.895,2.131,2.728c0.801-0.197,2.021-0.795,1.56-2.76
				c3.074,0.159,6.798,3.271,4.314,5.82c-0.527,0.539-1.854-0.167-2.814-0.57c1.696-0.288,2.833-2.221,2.113-3.683
				c-0.3-0.609-1.221-0.912-2.116-0.846c-2.02,0.151-1.123,2.003-2.278,2.994c-0.424,0.364-0.981,0.727-1.462,0.688
				c-0.875-0.069-1.551-0.888-2.324-1.269c-0.308-0.151-1.103,0.252-1.343,0.669c-0.436,0.755-0.275,1.673,0.66,2.195
				c-1.256,0.257-1.466-0.903-1.338-1.462c0.315-1.375,2.828-1.189,2.766-3.035c-0.033-1.011-0.709-1.86-2.178-2.253
				c3.288,0.702,2.509-2.94,4.86-3.743c1.492-0.51,0.783,0.814,0.64,1.368C47.125-22.117,44.982-21.717,44.31-20.406z"/>
			<path fill="#3D3D3D" d="M49.259-29.646c-0.545,0.138-1.01,0.457-1.509,0.708c1.209-0.847,0.055-2.107,2.136-3.213
				c0.501-0.266,0.298-1.512-0.636-2.037c0.252-0.252,0.498-0.498,0.75-0.75c-0.345,1.836,0.399,3.516,0.75,5.25
				C50.248-29.688,49.742-29.77,49.259-29.646z"/>
			<path fill="#3D3D3D" d="M54.666-32.938c-0.001,0.502-0.415,1.001-0.666,1.5c-0.253-0.252-0.699-0.597-0.649-0.698
				c0.517-1.026,0.694-1.977,0.649-3.052C54.252-34.436,54.666-33.688,54.666-32.938z"/>
			<path fill="#3D3D3D" d="M53.619-38.646c-1.274,0.323-1.384-0.834-1.376-1.478c0.008-0.53,0.815-1.14,1.292-0.664
				c0.506,0.508,0.008,1.703,2.34,1.412C55.122-39.122,54.405-38.843,53.619-38.646z"/>
			<path fill="#3D3D3D" d="M57.619-38.183c-0.704,0.797-1.04,2.951-1.994,1.994C54.658-37.154,56.744-37.55,57.619-38.183z"/>
			<path fill="#3D3D3D" d="M57.582-18.228c-0.224,0.94-0.501,2.767-2.024,2.145c-0.176-0.07-0.058-0.854-0.058-1.355
				c1.272,0.067,2.726-0.32,2.828-2.259c0.012-0.225-1.106-0.417-1.18-0.771c-0.146-0.688-1.075-1.469,1.352-2.221
				C57.455-21.316,57.939-19.729,57.582-18.228z"/>
			<path fill="#3D3D3D" d="M10.875-57.938c-0.102,2.447-0.171,1.646-2.625,2.438c0.501-0.252,1.989-0.945,2.103-1.321
				c0.239-0.777-0.086-1.137,0.319-1.835c-0.187-0.75-1.481-0.749-0.797-1.782c1.012-1.528,0.212-3.746,2.134-4.534
				c0.433-0.177,0.24,0.473,0.741,0.473C12.75-62.438,10.966-60.149,10.875-57.938z"/>
			<path fill="#3D3D3D" d="M59.044-33.149c0.309-3.896-0.548-6.014,3.577-4.514c0.937,1.313-1.814,0.205-2.114,0.816
				c-0.151,0.308,1.677,1.055,1.551,1.434c-0.126,0.382-2.106,0.387-2.346,0.803c-0.43,0.749,0.254,1.499,0.659,2.197
				C59.869-32.667,59.027-32.938,59.044-33.149z"/>
			<path fill="#3D3D3D" d="M57.375-28.688c-1.293-0.188-1.338,0.85-1.411,1.535c-0.023,0.226,0.607,0.581,0.555,0.692
				c-0.726,1.553-2.398,0.542-3.647,0.798c0.499,0,1.211,0.163,1.381-0.083c0.948-1.379,2.833-3.569,0.869-5.167
				c0.959,1.234,3.154,0.408,3.75,2.25C58.369-28.663,57.874-28.614,57.375-28.688z"/>
			<path fill="#3D3D3D" d="M53.8-21.668c-1.53,0.068-3.27,0.567-4.875,0.187c0.252-0.253,1.062-0.751,1.313-0.75
				c0.501,0.001,0.516,0.749,0.895,0.623c0.382-0.126,0.522-1.196,0.8-1.211c1.589-0.085,2.973-0.778,4.492-0.912
				c-0.253,0.501-0.394,1.196-0.801,1.398C55.014-22.028,54.554-21.704,53.8-21.668z"/>
			<path fill="#3D3D3D" d="M60.75-25.313c-0.209,0.451-0.962-0.142-1.325-0.668c1.364-0.905-0.145-3.232,1.536-3.568
				c0.618-0.123,1.33,0.721,2.214,0.568C62.445-27.342,61.529-26.998,60.75-25.313z"/>
			<path fill="#3D3D3D" d="M32.003-44.588c-1.293-0.188-1.338,0.849-1.41,1.534c-0.023,0.225,0.606,0.582,0.556,0.693
				c-0.727,1.551-2.4,0.541-3.648,0.797c0.499,0,1.21,0.164,1.38-0.082c0.948-1.378,2.834-3.571,0.87-5.168
				c0.959,1.234,3.154,0.409,3.75,2.25C32.998-44.563,32.503-44.515,32.003-44.588z"/>
			<path fill="#3D3D3D" d="M27-36.563c0.517-1.464,1.826-1.347,3-1.5C29.267-37.026,28.102-36.857,27-36.563z"/>
			<path fill="#3D3D3D" d="M12.894-40.603C12.768-40.55,12.438-41,12.187-41.25c0.801-0.426,1.307-2.111,2.078-1.33
				C15.003-41.834,13.687-40.313,12.894-40.603z"/>
			<path fill="#3D3D3D" d="M12.75-28.313c0.479-1.06,1.434-0.695,2.25-0.75C14.476-28.129,13.638-28.151,12.75-28.313z"/>
			<path fill="#3D3D3D" d="M37.848-28.704c-0.463,0.465-0.435,0.609-0.74,0.718c-0.841,0.299-1.534-0.297-2.232-0.702
				c2.57,0.54,3.593-1.544,3-3.75c0.501,0.253,1.332,0.499,1.332,0.75C39.207-30.687,38.442-29.69,37.848-28.704z"/>
			<path fill="#3D3D3D" d="M50.741-61.03c-0.463,0.463-0.437,0.608-0.741,0.717c-0.841,0.298-1.534-0.297-2.233-0.702
				c2.571,0.539,3.595-1.544,3-3.75c0.501,0.253,1.333,0.499,1.333,0.75C52.1-63.015,51.334-62.018,50.741-61.03z"/>
			<path fill="#3D3D3D" d="M26.25-27.563c0.151-0.883-0.346-1.551-0.75-2.25c0.727-0.204,1.336,0.196,1.397,0.763
				C26.897-28.5,26.501-28.063,26.25-27.563z"/>
			<path fill="#3D3D3D" d="M21.937-66c0.152-0.884-0.346-1.551-0.75-2.25c0.729-0.204,1.338,0.195,1.397,0.761
				C22.584-66.938,22.188-66.5,21.937-66z"/>
			<path fill="#3D3D3D" d="M9-30c0.517-1.465,1.826-1.348,3-1.5C11.267-30.464,10.102-30.294,9-30z"/>
			<path fill="#3D3D3D" d="M12.75-66.188c-1.791-0.236-0.231-1.589-0.75-2.25C14.191-68.333,11.434-66.584,12.75-66.188z"/>
			<path fill="#3D3D3D" d="M65.103-45.023c-0.142,0.867-1.781,1.099-1.836,1.554c-0.215,1.854-0.904,2.232-1.767,3.72
				c-0.253-0.252-0.666-0.497-0.667-0.75c-0.005-1.002,1.474-1.57,1.771-2.393c0.883-2.449,0.71-6.232,1.271-7.171
				c0.168,0.085,1.361-1.249,1.75-1.625L65.103-45.023z"/>
			<path fill="#3D3D3D" d="M24.102-65.111c1.653-1.237,2.264-4.912,4.148-5.702c-1.522,1.153-1.673,4.886-2.883,6.19
				c-2.315,2.494-5.573,3.817-7.288,6.917c-0.621,1.121,0.698,2.71-0.829,3.706c-0.256-2.43-0.23-5.029,1.657-6.556
				C20.86-62.136,22.113-63.623,24.102-65.111z"/>
			<path fill="#3D3D3D" d="M44.494-66.058c-0.704,0.797-1.04,2.951-1.994,1.994C41.533-65.029,43.619-65.425,44.494-66.058z"/>
			<path fill="#3D3D3D" d="M47-65.563c-0.437,0.486-1.178-0.079-1.32-0.676c-0.232-0.978-1.202-2.607-0.077-2.982
				c0.86,0.812,1.926,0.797,3,0.75C46.02-68.512,47.717-66.361,47-65.563z"/>
			<path fill="#3D3D3D" d="M54.468-64.864c0.162,0.302,0.749-0.096,1.032-0.449c-1.064-0.605,0.113-2.169-1.198-2.395
				c-0.481-0.082-1.036,0.484-1.726,0.382C53.146-66.226,53.86-65.994,54.468-64.864z"/>
			<path fill="#3D3D3D" d="M31.25-54.313c0.517-1.465,1.826-1.347,3-1.5C33.517-54.777,32.352-54.607,31.25-54.313z"/>
			<path fill="#3D3D3D" d="M61.5-51.563c0.479-1.06,1.434-0.695,2.25-0.75C63.226-51.379,62.388-51.401,61.5-51.563z"/>
			<path fill="#3D3D3D" d="M66-16.688c-0.816-0.054-2.15,0.286-2.06-0.732c0.086-0.959,0.971-1.983,0.461-2.966
				c-0.215-0.41-0.902-0.55-1.401-0.802c-0.813,2.275-3.319,3.351-3.801,5.991c-0.142,0.768-0.514,2.105-1.28,1.34
				c-0.771-0.771,1.099-0.957,1.121-1.343c0.164-2.917,1.88-4.948,3.78-6.911c0.375-0.387-0.053-1.652,0.947-2.024
				c0.834-0.31,1.722,0.694,2.134,0.495l-0.06,0.33c-0.834,0.458-1.515,1.12-1.844,2.199c-0.171,0.559,1.139,1.27,2.008,1.322
				L66-16.688z"/>
			<path fill="#3D3D3D" d="M37.25-60.813c0.151-0.883-0.346-1.551-0.75-2.25c0.727-0.204,1.336,0.196,1.397,0.763
				C37.897-61.75,37.501-61.313,37.25-60.813z"/>
			<path fill="#3D3D3D" d="M34.726-44.406c1.682,0.035,0.115,1.137,0.524,1.593C35.072-43.347,34.902-43.876,34.726-44.406z"/>
			<path fill="#3D3D3D" d="M60.75-45.563c0.152-0.884-0.346-1.551-0.75-2.25c0.728-0.204,1.337,0.196,1.397,0.761
				C61.397-46.501,61.001-46.063,60.75-45.563z"/>
			<path fill="#3D3D3D" d="M54.25-59.813c-0.025-0.896,0.563-1.486,1.062-2.12c-0.691-0.306-1.352,0.004-1.49,0.555
				C53.742-60.833,54.072-60.343,54.25-59.813z"/>
			<path fill="#3D3D3D" d="M19.757-64.394c0.751,1.644-1.223,1.04-1.507,1.83C17.174-64.476,20.121-63.068,19.757-64.394z"/>
			<path fill="#3D3D3D" d="M46-58.313c-1.593,0.171-0.684-0.906-0.75-1.5C45.502-59.312,45.748-58.813,46-58.313z"/>
			<path fill="#3D3D3D" d="M36.524-16.965c1.262-0.34,0.894-1.31,0.688-1.969c-0.066-0.217-0.787-0.293-0.783-0.416
				c0.053-1.713,1.989-1.446,3.035-2.176c-0.459,0.198-1.177,0.329-1.236,0.622c-0.324,1.641-1.189,4.399,1.246,5.09
				c-1.369-0.755-3.059,0.873-4.334-0.583C35.602-16.596,36.037-16.835,36.524-16.965z"/>
			<path fill="#3D3D3D" d="M21.75-42.813c-1.593,0.171-0.684-0.906-0.75-1.5C21.252-43.812,21.498-43.313,21.75-42.813z"/>
			<path fill="#3D3D3D" d="M24-48.313c0.479-1.06,1.434-0.695,2.25-0.75C25.726-48.129,24.888-48.151,24-48.313z"/>
			<path fill="#3D3D3D" d="M45.5-36.813c-1.593,0.171-0.684-0.906-0.75-1.5C45.002-37.812,45.248-37.313,45.5-36.813z"/>
			<path fill="#3D3D3D" d="M40.982-22.312c0.121-0.594-0.277-1.043-0.601-1.514c0.582-0.138,1.07,0.132,1.118,0.512
				C41.5-22.942,41.183-22.647,40.982-22.312z"/>
			<path fill="#3D3D3D" d="M35.566-22.057c-0.454,4.307-0.565-0.007-0.816-0.007c0.714-0.283,1.751-0.248,1.5-1.5
				C35.997-23.062,35.621-22.583,35.566-22.057z"/>
			<path fill="#3D3D3D" d="M20.086-28.063c2.506-0.762,0.264-1.373,3.158-1.952c1.207,0.639,1.159,2.27,0.955,3.651
				c-0.049,0.318-0.651,1.268-0.755,1.757c-0.145-0.542-0.28-1.074-0.426-1.622c-0.145-0.551-0.071-1.836-0.235-1.904
				C21.49-28.662,20.086-28.063,20.086-28.063z"/>
			<path fill="#3D3D3D" d="M20.845-21.583c0.346,1.269,1.407,0.795,1.963,0.471c0.458-0.267,0.591-1.27-0.058-1.451
				c-0.691-0.19-1.486,0.831-2.38-1.342C20.52-23.125,20.63-22.364,20.845-21.583z"/>
		</g>
		<g>
			<path fill="#3D3D3D" d="M5.25-62.25c0.204,0.728-0.185,1.317-0.765,1.404c-0.861,0.129-1.988,0.417-2.011,0.856
				C2.399-58.413,1.282-57.43,0-57c1.203-2.297,2.925-3.813,5.167-5.369c0.247-0.171-0.052-0.941,0.149-1.348
				c0.656-1.325,2.653,0.124,2.843-2.29C8.177-66.239,7.751-66.5,7.5-66.75c2.107,0.601,1.857-2.129,3.75-2.25c0,0.5,0,1,0,1.5
				c-0.885-0.152-1.527,0.373-2.259,0.733C6.679-65.626,9.084-62.717,5.25-62.25z"/>
			<path fill="#3D3D3D" d="M11.103-45.023c-0.142,0.867-1.781,1.099-1.836,1.554c-0.215,1.854-0.904,2.232-1.767,3.72
				c-0.253-0.252-0.666-0.497-0.667-0.75c-0.005-1.002,1.474-1.57,1.771-2.393c0.883-2.449,0.71-6.232,1.271-7.171
				c0.168,0.085,1.361-1.249,1.75-1.625L11.103-45.023z"/>
			<path fill="#3D3D3D" d="M12-16.688c-0.816-0.054-2.15,0.286-2.06-0.732c0.086-0.959,0.971-1.983,0.461-2.966
				c-0.215-0.41-0.902-0.55-1.401-0.802c-0.813,2.275-3.319,3.351-3.801,5.991c-0.142,0.768-0.514,2.105-1.28,1.34
				C3.148-14.629,5.018-14.814,5.04-15.2c0.164-2.917,1.88-4.948,3.78-6.911c0.375-0.387-0.053-1.652,0.947-2.024
				c0.834-0.31,1.722,0.694,2.134,0.495l-0.06,0.33c-0.834,0.458-1.515,1.12-1.844,2.199c-0.171,0.559,1.139,1.27,2.008,1.322
				L12-16.688z"/>
		</g>
	</g>
</pattern>
<g>
	<g>
		<path fill="#000022" d="M845,91.57c325.613,0,622.23,28.254,845.162,74.578h0.146V0H-0.309v166.148h0.146
			C222.768,119.824,519.387,91.57,845,91.57z"/>
		<path fill="url(#USGS_21_Intricate_Surface_2)" d="M845,91.57c325.613,0,622.23,28.254,845.162,74.578h0.146V0H-0.309v166.148
			h0.146C222.768,119.824,519.387,91.57,845,91.57z"/>
		<pattern  id="SVGID_1_" xlink:href="#New_Pattern" patternTransform="matrix(1.2401 0 0 1.2401 2000.8428 1894.6299)">
		</pattern>
		<path fill="url(#SVGID_1_)" d="M845,91.57c325.613,0,622.23,28.254,845.162,74.578h0.146V0H-0.309v166.148h0.146
			C222.768,119.824,519.387,91.57,845,91.57z"/>
	</g>
</g>
</svg>
