<?xml version="1.0" encoding="utf-8"?>
<!-- Generator: Adobe Illustrator 16.0.0, SVG Export Plug-In . SVG Version: 6.00 Build 0)  -->
<!DOCTYPE svg PUBLIC "-//W3C//DTD SVG 1.1//EN" "http://www.w3.org/Graphics/SVG/1.1/DTD/svg11.dtd">
<svg version="1.1" xmlns="http://www.w3.org/2000/svg" xmlns:xlink="http://www.w3.org/1999/xlink" x="0px" y="0px" width="1363px"
	 height="168.25px" viewBox="0 0 1363 168.25" enable-background="new 0 0 1363 168.25" xml:space="preserve">
<pattern  x="597" y="184.25" width="71.999" height="71.998" patternUnits="userSpaceOnUse" id="Mezzotint_2" viewBox="7.114 -87.667 71.999 71.998" overflow="visible">
	<g>
		<polygon fill="none" points="7.114,-87.667 79.113,-87.667 79.113,-15.669 7.114,-15.669 		"/>
		<g>
			<path fill="#F1F2F2" d="M13.701-16.274c-5,3.1,0.899,6.6,1,10c1.399,0.399,2-1.3,3-2c0.3-0.9-0.5-1.4-1-2l-1,1
				c-0.3-1.699,0.8-4-1-5c0.899,0.301,1.399-0.5,2-1c-1.8,0.7-0.7,2.7-1,4c0.7,1,2.399,1.6,2,3l-2,2l1,1c-0.5,0.6-1.3,1.1-1,2
				c1.6,1.6,3.899,4.6,6,2l-1,1c2.5,0.5-3.101,0.399-4-1c-1-2.601-1.601-6.3-5-7l1,1c2.7-1.699-0.7-3.3-1-5h-1
				C11.701-13.574,12.701-15.774,13.701-16.274z"/>
			<path fill="#F1F2F2" d="M21.707-18.625c-0.357,1.583,1.52,4.573-2.546,2.868l0.507,1.394c-0.813-0.066-1.882-0.434-2.034,0.328
				c0.354,0.778,0.456,1.647,1.522,2.212l-1.525-0.246C14.43-14.944,23.38-14.028,21.707-18.625z"/>
			<path fill="#F1F2F2" d="M66.926-17.485c-0.748-0.198-1.926,0.652-2.976,1.217l-1.747,4.745l1.882-1.105l0.615,1.766l3.765-2.211
				l-1.576,1.987c-2.552,0.809-2.355-0.582-2.804-1.542l-1.882,1.105c-0.264-0.43-0.18-1.169-1.402-0.77
				c4.53-2.29,2.383-3.897,3.629-5.852L66.926-17.485z"/>
			<path fill="#F1F2F2" d="M66.592-15.959c-0.697,0.644-0.238,1.468-0.091,2.235c1.277-1.694,5.54-1.97,2.897-5.255
				c0.934,0.174,0.985,1.115,1.27,1.843c-2.419,0.035-2.034,4.931-5.043,2.928L66.592-15.959z"/>
			<path fill="#F1F2F2" d="M51.701-11.274l-0.7-0.699l1-1l0.7,0.699L51.701-11.274l2,2c-0.5,0.6-1.3,1.1-1,2h-1
				C51.501-8.675,54.101-10.175,51.701-11.274h-1l2-6C52.401-15.274,49.001-13.274,51.701-11.274z"/>
			<polygon fill="#F1F2F2" points="40.751,-10.724 36.751,-13.724 40.751,-15.724 37.751,-13.724 			"/>
			<path fill="#F1F2F2" d="M27.934-20.079c-1.45,1.807-1.226,3.603-3.104,5.454l-1.397,0.846l0.979-0.592l0.402-1.675l-0.978,0.592
				c0.057,1.254-1.214,2.809-2.204,4.195l7.298-7.992L27.934-20.079z"/>
			<path fill="#F1F2F2" d="M32.322-12.409l-0.188-3.688c-3.188,2.9-4.25,1.203-6.158,1.555l1.614-0.244l-1.014,1.393
				c2.309-2.58,5.505,0.525,7.661,1.313l1.014-1.393C34.158-12.565,33.262-12.614,32.322-12.409z"/>
			<path fill="#F1F2F2" d="M49.876-17.099l-2,3c0.4,2.099-0.6-3.101-3-4l3,3L49.876-17.099z"/>
			<path fill="#F1F2F2" d="M36.205-17.683c4.061-1.236,0.072,2.466,0.188,3.688c-0.912,1.253,0.854-1.368,2.141-5.899
				C37.896-19.116,37.479-18.247,36.205-17.683z"/>
		</g>
		<g>
			<path fill="#F1F2F2" d="M84.137-69.905c0.071-0.754-0.144-1.696,0.717-1.967C84.783-71.118,84.998-70.177,84.137-69.905
				l-4.309-0.737v2.786l-0.718-2.212C80.978-70.445,82.054-71.166,84.137-69.905z"/>
			<path fill="#F1F2F2" d="M79.158-81.984l-1.005-0.172v-1.393l1.005,0.171V-81.984l2.872,0.491
				c0.072,0.778-0.144,1.646,0.718,2.212l-0.718,0.573C80.882-79.74,81.671-82.461,79.158-81.984l-0.718,0.573l-2.871-6.063
				C76.789-85.663,75.784-82.074,79.158-81.984z"/>
			<path fill="#F1F2F2" d="M81.397-66.55l0.021-0.92l4.354-0.437l0.021-0.921l2.177-0.218l-1.076-0.353
				c2.403-0.607-6.239,2.049-8.774,3.636C78.786-66.38,80.198-66.384,81.397-66.55z"/>
			<path fill="#F1F2F2" d="M81-58.723l0.313-1.423l1.077,1.49l-3.634,0.544C79.362-58.945,80.22-58.688,81-58.723z"/>
			<path fill="#F1F2F2" d="M75.073-25.441c2.732,0.521,4.432-0.569,6.571-0.866l-3.363,0.747l-1.372-0.884
				C78.271-27.461,74.906-26.06,75.073-25.441z"/>
			<polygon fill="#F1F2F2" points="74.654,-47.416 74.169,-47.72 78.522,-48.156 78.544,-49.077 80.721,-49.295 79.645,-49.647 			
				"/>
		</g>
		<g>
			<polygon fill="#F1F2F2" points="12.251,-25.973 11.726,-27.285 14.352,-28.336 10.938,-25.447 			"/>
			<path fill="#F1F2F2" d="M13.701-88.272c-5,3.1,0.899,6.6,1,10c1.399,0.399,2-1.3,3-2c0.3-0.9-0.5-1.4-1-2l-1,1
				c-0.3-1.699,0.8-4-1-5c0.899,0.301,1.399-0.5,2-1c-1.8,0.7-0.7,2.7-1,4c0.7,1,2.399,1.6,2,3l-2,2l1,1c-0.5,0.6-1.3,1.1-1,2
				c1.6,1.6,3.899,4.6,6,2l-1,1c2.5,0.5-3.101,0.399-4-1c-1-2.601-1.601-6.3-5-7l1,1c2.7-1.699-0.7-3.3-1-5h-1
				C11.701-85.572,12.701-87.772,13.701-88.272z"/>
			<path fill="#F1F2F2" d="M58.701-84.272l-0.7-0.699l1-1l0.7,0.699L58.701-84.272c-1-0.699-1.601-2.4-3-2c-0.5,0.6-1.3,1.1-1,2
				c2.6,2.5-1.3-0.8,0-2C56.601-86.873,57.501-85.373,58.701-84.272z"/>
			<path fill="#F1F2F2" d="M20.701-79.522c-0.9-0.3-1.4,0.5-2,1c-0.3,0.899,0.5,1.399,1,2c2.1-0.3,3.3-2.699,5-4
				c-0.601-1.199-1.9-1-3-1c1.1,0,2.399,0.2,3-1l-1,1l1,1l-3,3l1,1c0,2.5,0.2-1-1-1c-1.101,1.301-2.601,1.5-4,2l1-1l-1-1
				c1.8-1.199,2.3-2.9,2-5C19.701-81.423,19.501-80.123,20.701-79.522z"/>
			<path fill="#F1F2F2" d="M63.201-74.022c0.6,1.899-0.9,2.801-2,4l1,1c-0.5,0.6-1.3,1.1-1,2c-2-2.699-4,0.7-6,1
				c-1.2,1.399,2.2-1.4,1-3c-0.3,0.899,0.5,1.399,1,2l5-2l-1-1l2-2l-2-2H63.201z"/>
			<path fill="#F1F2F2" d="M66.951-67.022c3.399,2.1,1.75,2.75,1.75,3.75l-2,2c2.7,4,4.8-7.199,7.3-3.699c2.5,1.299-0.3,0.299-1-1
				l-6.3,6.699l1-1l-1-1c1.3-2.699,4.05-3.25,0.25-6.75l1-1C68.251-68.123,67.451-67.623,66.951-67.022z"/>
			<path fill="#F1F2F2" d="M71.93-62.416c2.152,0.688-1.886,3.405-2.815,5.137c1.155-0.829,2.047-0.716,2.998-0.853
				c0.644,0.317-0.322,1.192-0.853,1.911c-1.813,1.248-3.075,0.673-4.626,0.981l3.515,0.334c0.693-0.73,1.171-1.567,2.481-2.04
				c-3.715-1.179,0.871-4.184,0.41-6.788L71.93-62.416z"/>
			<path fill="#F1F2F2" d="M63.701-52.272c0.6-0.5,1.1-1.3,2-1l1,1l1-1v2c-1.2-2.101-3.3-2.3-5-1v-1L63.701-52.272z"/>
			<path fill="#F1F2F2" d="M61.951-48.772c-0.601-0.5-1.3-0.25-2.2,0.05c1.9-1.2-1.9-3.8,0-5
				C58.451-52.123,61.251-50.772,61.951-48.772z"/>
			<path fill="#F1F2F2" d="M65.151-37.072c1.1,0,2.399-0.2,3,1l-0.7-0.7l2-2l0.7,0.7l-3,3c0.3-0.9-0.5-1.4-1-2H65.151z"/>
			<path fill="#F1F2F2" d="M26.701-28.272c-0.601-1.2-1.9-1-3-1c-2,1,0.3,2.8,1,4l-0.7-0.7l1-1l0.7,0.7l-1,1c-1.5-0.101-0.9-4.5-4-3
				l-1,1c0.5,0.6,1.3,1.1,1,2l-1,1l3,2c-0.601-0.5-1.101-1.3-2-1l-1,1c0.3-0.9-0.5-1.4-1-2c0.899,0.3,1.399-0.5,2-1
				c-0.5-1.4-0.7-2.9-2-4c1.2,1,5.3,2.2,5-1C25.101-30.673,25.701-28.973,26.701-28.272z"/>
			<path fill="#F1F2F2" d="M17.701-26.272c-0.5,0.6-1.3,1.1-1,2c-0.601-0.5-1.101-1.3-2-1l0.7,0.7l-1,1l-0.7-0.7l2-2l1,1
				L17.701-26.272z"/>
			<path fill="#F1F2F2" d="M10.701-21.272c1.899,2.7,3.6-0.9,6,0c-0.5,0.6-1.3,1.1-1,2c-0.601-0.5-1.101-1.3-2-1
				c-0.5,0.6-1.3,1.1-1,2c1,0-5.7-2.7-1-6C11.701-23.173,11.901-21.873,10.701-21.272z"/>
			<path fill="#F1F2F2" d="M12.014-42.632c1.028,1.707,2.695,1.176,4.323,1.145l0.089,1.412c0.78,0.022,1.685-0.248,2.161,0.572
				c-0.703-3.286,3.171-2.537,4.718-3.84c1.844,0.026-2.504,0.726-2.912-1.233c0.874,0.37,0.721,1.301,0.84,2.073l-4.807,2.428
				l-0.089-1.412l-2.823,0.178l-0.178-2.822L12.014-42.632z"/>
			<path fill="#F1F2F2" d="M13.347-62.624l0.808,1.16l2.321-1.615l0.808,1.16l1.161-0.808l-0.177,0.984
				c1.6-0.424-4.561,0.504-7.066-0.25C12.034-61.538,12.667-62.237,13.347-62.624z"/>
			<path fill="#F1F2F2" d="M64.551-81.344c3.801,1.251-1.075,4.5,0.809,6.659C63.919-76.897,67.101-79.266,64.551-81.344z"/>
			<polygon fill="#F1F2F2" points="68.751,-71.722 67.217,-70.439 70.501,-76.722 			"/>
			<path fill="#F1F2F2" d="M15.001-58.723l1,1l-3,3l1,1h-1v-2c0.9,0.3,1.4-0.5,2-1c0.3-0.9-0.5-1.4-1-2c0.6-0.5,1.1-1.3,2-1
				L15.001-58.723z"/>
			<path fill="#F1F2F2" d="M21.251-53.223c0.6,0.5,1.1,1.3,2,1c1.2-0.6,1-1.9,1-3h1l-1,1l0.7-0.7l2,2l-0.7,0.7c-0.6-0.5-1.1-1.3-2-1
				l-2,2l1,1l-1,1c1.5-2.6-3-4,0-6C21.751-54.623,20.951-54.123,21.251-53.223z"/>
			<polygon fill="#F1F2F2" points="12.251,-51.223 14.251,-52.223 16.251,-50.223 			"/>
			<path fill="#F1F2F2" d="M20.251-51.223c-1,1.3-3.1,2.2-3,4v1h-2v-1c1.4,0.4,2-1.3,3-2v-3
				C18.851-51.723,19.351-50.923,20.251-51.223z"/>
			<path fill="#F1F2F2" d="M73.762-78.529l0.974,0.228l0.143,1.675l-0.973-0.228c-0.152-1.985-0.096-1.331,1.25-2.25
				c-0.472-0.623,0.694-2.337-0.25-2.25l0.74-0.842L73.762-78.529z"/>
			<path fill="#F1F2F2" d="M56.501-16.224c-1.1,0.5,4.1-2.499,3-4.999C60.601-18.723,57.501-17.923,56.501-16.224z"/>
			<path fill="#F1F2F2" d="M68.263-33.132l-0.012-1.414c2.339,0.615,3.954-0.741,4.22-2.864c1.472-1.498-2.319,1.786,0.022,2.828
				c-2.624-0.897-4.019,1.376-5.632,2.875l0.012,1.415c4.238-0.461-2.111,1.148-0.012-1.415l0.008,0.991l-1.414,0.012l-0.009-0.99
				C66.723-31.281,67.492-32.349,68.263-33.132z"/>
			<path fill="#F1F2F2" d="M69.251-20.223l-3,4.999c-3.3,1.7,6.8-7.199-1-3.999l-0.7,0.7l-1-1l0.7-0.7c1,2,2.8-0.3,4-1
				c-2.4-1.2-2.4-3.8,0-5C65.251-25.322,66.751-21.822,69.251-20.223z"/>
			<path fill="#F1F2F2" d="M61.001-31.723h1v2h-1c-0.6-1.9,0.9-2.8,2-4c-0.6-0.5-1.1-1.3-2-1l1-1c-1-1-3.3-2.8-1-4
				C57.701-36.322,68.601-33.223,61.001-31.723z"/>
			<path fill="#F1F2F2" d="M58.751-60.473v1c-0.6-1.2-1.9-1-3-1l-1,1c2.7,0.1,1.4-1.65,1.5-3.249
				C58.951-59.723,55.451-61.972,58.751-60.473z"/>
			<path fill="#F1F2F2" d="M64.501-55.723c0.6-0.5,1.1-1.3,2-1C65.901-56.223,65.401-55.423,64.501-55.723l-3-3l-2,2l1-2
				C62.301-57.923,63.701-57.822,64.501-55.723z"/>
			<path fill="#F1F2F2" d="M69.251-82.472l1,1c-1.4-0.401-2,1.299-3,2l2,2c1.3-1,2.2-3.101,4-3c-1.6-0.5-3.7,5.099-6,2
				c0.7-1.801,2.1-4.201,3-5L69.251-82.472z"/>
			<path fill="#F1F2F2" d="M62.751-82.472c0.2,1.5-1.7,2.299-1,4l1,1l-0.7-0.701l1-1l0.7,0.701c-1.2,0.599-1,1.899-1,3l-2-7H62.751z
				"/>
			<path fill="#F1F2F2" d="M66.001-69.472c-1.2-0.601-1-1.901-1-3c1.4,0.399,2-1.301,3-2l-1-2
				C70.501-73.772,63.701-72.873,66.001-69.472z"/>
			<path fill="#F1F2F2" d="M11.251-39.723l1.437,0.245l-1.437,1.148l-0.718-3.605C11.396-41.369,11.18-40.501,11.251-39.723z"/>
			<path fill="#F1F2F2" d="M55.351-72.903c2.089,0.063,1.018-4.78,4.122-7.868l-4.854-0.196l3.38,0.342l0.615-1.416
				C59.725-79.237,57.773-76.534,55.351-72.903z"/>
			<path fill="#F1F2F2" d="M12.801-34.958c-0.501-2.385,2.154-2.418,3.591-2.868v1.393c-2.37-1.031-4.021,0.01-4.309,2.05
				l-0.718-0.819L12.801-34.958z"/>
			<path fill="#F1F2F2" d="M9.379-33.749v1.393l2.872,0.491v1.393l1.437,0.245l-0.719,0.574c1.581,0.827-4.093-2.858-5.743-5.16
				C7.656-33.904,8.59-33.953,9.379-33.749z"/>
			<path fill="#F1F2F2" d="M21.814-32.969v-1.392l1.437,0.245v1.393c2.729,1.024-5.601-2.489-4.308,2.049
				c-1.867,1.073,2.01-0.491,0.718-1.967l-2.153,0.328C18.871-32.706,20.092-33.402,21.814-32.969z"/>
			<path fill="#F1F2F2" d="M56.259-55.354c1.65,0.074,3.804,1.278,5.025,0.163c-0.862,3.194,3.159,1.655,4.308,3.521
				c-0.431,0.763-1.363,0.395-2.154,0.329c0.144-1.646-2.584-2.949-4.308-3.522L56.259-55.354l0.717,3.605l-0.717-4.999V-55.354z"/>
			<path fill="#F1F2F2" d="M22.691-64.343c-2.586,0.533-0.934,3.531-1.437,5.326c-0.431-0.91-1.363-0.86-2.154-1.065
				c-0.861,0.271-0.646,1.214-0.717,1.967c0.717,1.377,2.368,0.893,3.589,1.312l-3.589,0.081c-0.073-0.778,0.143-1.646-0.719-2.212
				c4.451-0.91,2.514-4.235,5.026-6.8V-64.343z"/>
			<path fill="#F1F2F2" d="M10.909-49.613l-0.972-0.314l0.2-1.378l0.971,0.314L10.909-49.613l2.771,0.898
				c-0.039,0.78-0.377,1.609,0.395,2.292l-0.793,0.465C12.292-47.145,13.465-49.724,10.909-49.613l-0.793,0.465L8.28-54.604
				C9.229-52.637,7.582-50.186,10.909-49.613z"/>
			<path fill="#F1F2F2" d="M16.667-54.377c0.489-3.507-0.267,2.19,2.175,0.149l-3,0.255L16.667-54.377z"/>
			<path fill="#F1F2F2" d="M12.138-69.905c0.071-0.754-0.144-1.696,0.717-1.967C12.784-71.118,12.999-70.177,12.138-69.905
				l-4.309-0.737v2.786l-0.718-2.212C8.979-70.445,10.055-71.166,12.138-69.905z"/>
			<path fill="#F1F2F2" d="M15.381-71.038c0.706-0.274,1.452-0.889,2.08-0.239l0.424,1.395l1.245-0.625l-0.821,2.018
				c-0.139-2.58-1.81-3.591-3.762-2.934l0.411-1.009L15.381-71.038z"/>
			<path fill="#F1F2F2" d="M25.152-58.104l1.132-0.849l-0.283,1.979l-2.688-2.404C24.247-59.546,24.629-58.684,25.152-58.104z"/>
			<path fill="#F1F2F2" d="M8.354-77.101l1.436,0.246c-1.292,0.475-0.502,2.212-0.718,3.359l2.872,0.49
				c0.216-1.564-0.646-3.801,0.718-4.752c-1.507,0.508,1.006,6.3-2.872,5.08c-0.79-1.876-1.508-4.645-1.436-5.815V-77.101z"/>
			<path fill="#F1F2F2" d="M7.159-81.984l-1.005-0.172v-1.393l1.005,0.171V-81.984l2.872,0.491c0.072,0.778-0.144,1.646,0.718,2.212
				l-0.718,0.573C8.883-79.74,9.672-82.461,7.159-81.984l-0.718,0.573L3.57-87.474C4.79-85.663,3.785-82.074,7.159-81.984z"/>
			<path fill="#F1F2F2" d="M71.001-40.473c0.072-0.754-0.144-1.696,0.718-1.966C71.646-41.686,71.863-40.743,71.001-40.473
				l-4.308-0.737v2.786l-0.718-2.212C67.842-41.012,68.919-41.733,71.001-40.473z"/>
			<path fill="#F1F2F2" d="M73.592-53.983c-0.934,1.582-0.145,4.572-3.591,2.868v1.393c-0.79-0.066-1.723-0.434-2.154,0.328
				c0.072,0.778-0.144,1.646,0.718,2.212l-1.436-0.245C64.976-50.303,73.592-49.387,73.592-53.983z"/>
			<path fill="#F1F2F2" d="M21.707-90.623c-0.357,1.583,1.52,4.573-2.546,2.868l0.507,1.394c-0.813-0.066-1.882-0.434-2.034,0.328
				c0.354,0.778,0.456,1.647,1.522,2.212l-1.525-0.246C14.43-86.942,23.38-86.026,21.707-90.623z"/>
			<path fill="#F1F2F2" d="M72.832-75.669c-2.391,0.533,0.352,3.532,0.502,5.325c-0.762-0.909-1.677-0.859-2.541-1.063
				c-0.764,0.271-0.205,1.212-0.003,1.966c1.219,1.376,2.695,0.893,4.067,1.31l-3.561,0.083c-0.354-0.778-0.455-1.646-1.523-2.212
				c4.122-0.909,0.972-4.236,2.552-6.801L72.832-75.669z"/>
			<path fill="#F1F2F2" d="M74.999-24.048c-3.202-1.695-3.46,1.147-3.056,3.441c1.524,0.639,1.984-0.271,2.544-0.901
				c-0.763,0.271-0.205,1.213-0.002,1.967l0.509-0.574l1.016,0.819l-0.509,0.573c3.864,0.558-1.475,0.091-2.032-1.638
				c-3.966-1.425-0.104,2.867-1.53,3.687l-0.503-5.325l0.355,0.975l-1.524-0.245l-0.355-0.975
				C74.079-20.853,69.713-26.734,74.999-24.048z"/>
			<path fill="#F1F2F2" d="M63.707-49.623c-0.357,1.583,1.52,4.573-2.546,2.869l0.507,1.393c-0.813-0.066-1.882-0.434-2.034,0.328
				c0.354,0.777,0.456,1.647,1.522,2.212l-1.525-0.246C56.43-45.942,65.38-45.026,63.707-49.623z"/>
			<path fill="#F1F2F2" d="M59.67-63.318c1.626,1.114,1.472,2.858,3.556,3.85l1.525,0.246l-1.067-0.172l-0.508-1.393l1.068,0.172
				c-0.001,1.18,1.422,2.13,2.539,3.03l-8.131-4.586L59.67-63.318z"/>
			<path fill="#F1F2F2" d="M66.727-68.408c-3.561,0.868-0.159,6.071-3.566,5.98L62.092-62.6l-0.507-1.392l1.068,0.171l0.507,1.393
				c3.609,1.237,0.969-2.466,1.529-3.687l-1.524-0.245L66.727-68.408z"/>
			<path fill="#F1F2F2" d="M17.822-64.157l-0.188-3.688c-3.188,2.9-4.25,1.203-6.158,1.555l1.614-0.244l-1.014,1.393
				c2.309-2.58,5.505,0.525,7.661,1.313l1.014-1.393C19.658-64.313,18.762-64.362,17.822-64.157z"/>
			<path fill="#F1F2F2" d="M9.398-66.55l0.021-0.92l4.354-0.437l0.021-0.921l2.177-0.218l-1.076-0.353
				c2.403-0.607-6.239,2.049-8.774,3.636C6.787-66.38,8.199-66.384,9.398-66.55z"/>
			<path fill="#F1F2F2" d="M9.001-58.723l0.313-1.423l1.077,1.49l-3.634,0.544C7.363-58.945,8.221-58.688,9.001-58.723z"/>
			<polygon fill="#F1F2F2" points="17.226,-43.404 18.875,-42.909 14.809,-45.341 14.367,-44.868 16.784,-42.931 			"/>
			<path fill="#F1F2F2" d="M23.001-37.473c-0.838,0.065-2.039,0.434-1.915-0.327c0.428-1.181,2.196-2.131,3.643-3.032l-0.3-0.573
				l-1.015,1.394l0.709-0.976l-3.229,0.49l-0.711,0.976c0.838-0.064,2.039-0.435,1.916,0.328l-2.027,2.786l-1.615,0.245
				l-1.014,1.393c2.967-2.989,6.158-1.556,7.886-4.915C24.691-38.906,24.273-38.037,23.001-37.473z"/>
			<path fill="#F1F2F2" d="M84.604-56.564c-3.088,1.77-5.743,0.55-9.334-0.899c-0.287,2.04,4.955-0.197,7.898,2.048L84.604-56.564z"
				/>
			<path fill="#F1F2F2" d="M78.873-40.839c3.662,0.557-1.508,0.09-1.436-1.639c-3.447-1.425-1.149,2.868-2.873,3.688l1.437-5.325
				v0.975l-1.437-0.245v-0.975c3.662,1.392,1.437-4.49,5.744-1.805c-2.584-1.694-3.877,1.148-4.308,3.442
				c1.292,0.64,2.082-0.271,2.872-0.901V-40.839z"/>
			<path fill="#F1F2F2" d="M80.615-28.237c-0.432-2.581-5.889,0.525-8.616,1.313v-1.394c0.431,0.91,1.364,0.86,2.154,1.065
				l2.872-3.688c1.076,2.9,3.375,1.204,5.025,1.557L80.615-28.237z"/>
			<path fill="#F1F2F2" d="M78.501-50.973c-1.65,0.345-2.944-2.384-4.308-0.737v-1.393L78.501-50.973z"/>
			<path fill="#F1F2F2" d="M79.415-73.524c-0.071-0.778,0.144-1.646-0.718-2.212c-2.514-1.335-1.723,1.655-2.872,2.295
				c-1.795,1.435,0.862-0.41,0-1.394l-1.437-0.246c1.006,2.402,4.524-3.055,2.154-5.897L79.415-73.524z"/>
			<path fill="#F1F2F2" d="M77.928-35.945l-0.508-1.394c2.745,1.032,4.018-0.007,3.563-2.047c1.07-1.205-1.883,1.334,1.014,2.784
				c-3.15-1.359-3.866,0.623-5.088,1.803l0.507,1.394c4.425,0.319-1.882,0.746-0.507-1.394l0.354,0.976l-1.524-0.245l-0.354-0.976
				C76.908-34.404,77.367-35.314,77.928-35.945z"/>
			<path fill="#F1F2F2" d="M76.598-72.005l-1.314,0.82c1.758-0.639,1.886,0.27,2.216,0.901l-1.014,1.393
				c-0.942-1.467,0.444,2.843,2.517,1.476C74.247-66.507,79.561-71.34,76.598-72.005z"/>
			<path fill="#F1F2F2" d="M77.895-63.997l-0.711,0.976c0.838-0.064,2.039-0.435,1.916,0.328l-2.027,2.786l-1.615,0.245
				l-1.014,1.393c2.967-2.989,6.158-1.556,7.886-4.915c-0.638,0.778-1.056,1.646-2.328,2.212c-0.838,0.065-2.039,0.434-1.915-0.327
				L77.895-63.997z"/>
			<path fill="#F1F2F2" d="M62.127-41.729l-1.314,0.819c1.758-0.64,1.886,0.271,2.217,0.901l-1.014,1.393
				c-0.943-1.467,0.442,2.843,2.516,1.475C59.777-36.231,65.09-41.064,62.127-41.729z"/>
			<path fill="#F1F2F2" d="M62.278-15.629c0.477-0.754,1.378-1.695,0.714-1.966l-1.615,0.245l1.015-1.392l-2.629,1.638
				c3.121-1.032,4.015,0.009,2.816,2.048L62.278-15.629z"/>
			<path fill="#F1F2F2" d="M63.955-43.931c4.061-1.236,0.072,2.466,0.188,3.688c-0.912,1.253,0.854-1.368,2.141-5.899
				C65.646-45.364,65.229-44.495,63.955-43.931z"/>
			<path fill="#F1F2F2" d="M66.926-89.483c-0.748-0.198-1.926,0.652-2.976,1.217l-1.747,4.745l1.882-1.105l0.615,1.766l3.765-2.211
				l-1.576,1.987c-2.552,0.809-2.355-0.582-2.804-1.542l-1.882,1.105c-0.264-0.43-0.18-1.169-1.402-0.77
				c4.53-2.29,2.383-3.897,3.629-5.852L66.926-89.483z"/>
			<path fill="#F1F2F2" d="M72.347-85.559c-0.487,0.58-1.311,1.087-0.898,1.892l1.182,0.851l-0.992,0.977l2.175-0.125
				c-2.397-0.966-2.814-2.872-1.562-4.507l-1.088,0.063L72.347-85.559z"/>
			<path fill="#F1F2F2" d="M66.592-87.957c-0.697,0.644-0.238,1.468-0.091,2.235c1.277-1.694,5.54-1.97,2.897-5.255
				c0.934,0.174,0.985,1.115,1.27,1.843c-2.419,0.035-2.034,4.931-5.043,2.928L66.592-87.957z"/>
			<path fill="#F1F2F2" d="M69.622-44.428l0.729,0.685l-1.371,1.456l-0.729-0.686c0.865-1.795,2.574-1.422,4.198-1.542
				c-0.095-0.775,0.09-1.7-0.771-2.099l1.413-0.043c-0.043-1.413-0.484-4.301,2.013-3.598C70.371-50.04,76.184-40.313,69.622-44.428
				z"/>
			<path fill="#F1F2F2" d="M63.594-28.973c-0.959,3.22-6.012-2.218-6.018,1.224l0.141,1.134l1.363,1.053l-0.141-1.135l-1.363-1.052
				c-1.123-4.094,2.467-0.004,3.69-0.087l0.2,1.621L63.594-28.973z"/>
			<path fill="#F1F2F2" d="M71.501-32.723c-0.9-0.3-1.4,0.5-2,1c2.1,0.3,4.4,3.9,6,0c0.3,0.9-0.5,1.4-1,2c-1.2-2.1-5.3,0.6-5-3
				H71.501z"/>
			<path fill="#F1F2F2" d="M65.408-26.647l-0.262-1.39l1.39-0.262l0.263,1.39c2.744,0.058-5.709-0.508-3.646,3.564
				c-1.545,1.73,1.788-1.2,0.302-2.216l-1.954,1.088C62.703-25.346,63.715-26.473,65.408-26.647z"/>
			<path fill="#F1F2F2" d="M80.001-23.723c-1.4-0.4-2,1.3-3,2c0,2.5,0.2-1-1-1l-1,1l1-2c-0.3,0.9,0.5,1.4,1,2l2-3L80.001-23.723z"/>
			<polygon fill="#F1F2F2" points="69.551,-25.865 68.201,-28.545 70.444,-26.315 70.895,-25.423 70.001,-24.973 			"/>
			<polygon fill="#F1F2F2" points="75.501,-36.723 73.621,-36.04 77.638,-39.628 			"/>
			<path fill="#F1F2F2" d="M3.074-25.441c2.732,0.521,4.432-0.569,6.571-0.866l-3.363,0.747L4.91-26.444
				C6.271-27.461,2.907-26.06,3.074-25.441z"/>
			<path fill="#F1F2F2" d="M8.979-14.332c-4.059,1.237-0.071-2.466-0.188-3.687l1.615-0.246l-2.817-2.048
				C10.833-19.444,5.538-14.242,8.979-14.332z"/>
			<path fill="#F1F2F2" d="M14.501-34.973c1.395,1.144,0.64,3.299,0.921,4.914l-0.121-2.824l-1.413,0.061
				C13.119-30.948,13.745-34.444,14.501-34.973z"/>
			<path fill="#F1F2F2" d="M8.251-43.723c0.619-1.146,2.675-2.884,1.728-3.359L8.251-43.723c2.377-1.785-1.596,3.277,4.243-1.884
				C11.05-44.706,9.4-43.525,8.251-43.723z"/>
			<polygon fill="#F1F2F2" points="75.001,-17.223 73.283,-17.349 77.78,-15.854 78.108,-16.412 75.33,-17.78 			"/>
			<path fill="#F1F2F2" d="M55.422-18.232c0.22-1.078,0.283-2.392,1.579-2.74l-0.825,0.546l-1.561-2.358l0.826-0.547l2.34,3.54
				c-0.822-0.475-1.473,0.21-2.159,0.58L55.422-18.232z"/>
			<polygon fill="#F1F2F2" points="17.907,-19.699 17.172,-17.741 20.407,-18.196 			"/>
			<path fill="#F1F2F2" d="M73.251-59.973l2-2.999l1,1C74.851-62.373,74.251-60.673,73.251-59.973z"/>
			<path fill="#F1F2F2" d="M75.251-84.347c0,2.5,0.2-1-1-1l-1,1l1-2C73.951-85.447,74.751-84.947,75.251-84.347z"/>
			<path fill="#F1F2F2" d="M78.074-53.219c-1.349-0.91-4.387-0.287-3.849-3.191c0.255,1.07,0.364,2.381,1.671,2.685
				c0.945,0.082,1.245-0.812,1.712-1.438l1.672,2.685L78.074-53.219z"/>
			<polygon fill="#F1F2F2" points="79.646,-49.647 74.655,-47.416 74.169,-47.72 78.523,-48.156 			"/>
			<polygon fill="#F1F2F2" points="2.655,-47.416 2.17,-47.72 6.523,-48.156 6.545,-49.077 8.722,-49.295 7.646,-49.647 			"/>
			<polygon fill="#F1F2F2" points="58.494,-64.492 60.53,-65.979 57.488,-65.082 			"/>
			<polygon fill="#F1F2F2" points="59.28,-33.979 59.314,-36.266 58.023,-36.069 			"/>
			<path fill="#F1F2F2" d="M51.701-83.272l-0.7-0.699l1-1l0.7,0.699L51.701-83.272l2,2c-0.5,0.6-1.3,1.1-1,2h-1
				C51.501-80.673,54.101-82.173,51.701-83.272h-1l2-6C52.401-87.272,49.001-85.272,51.701-83.272z"/>
			<path fill="#F1F2F2" d="M49.701-70.022l-2.009,0.049l-0.741,0.951c0.1-1.8-2-2.699-3-4l-1,1c-0.2-1.4,3.899-2.9,0-4h-1l1-3
				C43.551-75.623,44.251-70.373,49.701-70.022z"/>
			<path fill="#F1F2F2" d="M56.251-78.722c-4.05,0.771-5.03,5.932-8.387,5.761l-0.972-0.195l0.279-1.386l0.971,0.195l0.472,1.136
				c2.909,1.308,2.36-2.409,3.61-3.601l-1.388-0.278L56.251-78.722z"/>
			<path fill="#F1F2F2" d="M48.201-66.022l4.454-0.832c-1.2,2.7,2.445,2.633,3.546,3.832l-1-1l-1,1
				c1.5-2.101-6.921-4.207-9.421-4.207l0.5-1.75C44.979-68.079,47.701-66.623,48.201-66.022z"/>
			<path fill="#F1F2F2" d="M32.701-65.272c-2.5-1.101-3.3,2-5,3c0.3-0.9-0.5-1.4-1-2c-0.9-0.3-1.4,0.5-2,1c-0.4,1.399,1.3,2,2,3
				l-3-2c0.5-0.601,1.3-1.101,1-2c4.3,1.899,5.1-1.601,9-2L32.701-65.272z"/>
			<path fill="#F1F2F2" d="M46.701-65.272c-1.9,0.6-3.4,3.2-5,0l-1,1c-0.601-0.5-1.101-1.3-2-1c-0.5,0.6-1.3,1.1-1,2l-1-1
				C37.001-67.572,43.401-61.972,46.701-65.272z"/>
			<path fill="#F1F2F2" d="M32.701-56.272c0.3-0.9-0.5-1.4-1-2l-4,2l4,4c0.5-0.601,1.3-1.101,1-2l1,1c-0.9-0.3-1.4,0.5-2,1
				c0,2.6,2.5,1.6,3,4c-3.601-1.3-2.5-7.101-7-8c1.2-1.601,5.3-0.601,4-4L32.701-56.272z"/>
			<path fill="#F1F2F2" d="M49.701-53.772c3.8,0.399,0.5-5.601,5-4L49.701-53.772z"/>
			<path fill="#F1F2F2" d="M37.35-47.089l-0.744,1.205l2.407,1.484l-0.741,1.204l1.203,0.743l-0.974,0.229
				c1.027,1.299-2.279-3.981-2.586-6.581C35.831-47.859,36.725-47.557,37.35-47.089z"/>
			<path fill="#F1F2F2" d="M39.701-52.272c1.3-2,3.5-0.5,5,0l-1,1c-1.2-2.101-3.3-2.3-5-1v-1L39.701-52.272z"/>
			<path fill="#F1F2F2" d="M50.642-47.491c-1.2-2.956-2.111,1.512-5.099,0.108c-1.044,0.728,1.241-0.693,6.433-1.901
				C51.379-48.781,50.503-48.429,50.642-47.491z"/>
			<path fill="#F1F2F2" d="M40.701-44.772l1,1h-2l2-3C42.001-45.873,41.201-45.373,40.701-44.772z"/>
			<path fill="#F1F2F2" d="M37.701-40.272c1.7-1.3-4.2-2.7-5-6l-4,3l3-2l-1-1C34.501-45.772,35.801-43.373,37.701-40.272z"/>
			<path fill="#F1F2F2" d="M50.701-42.772c0.3-0.9-0.5-1.4-1-2l1,1l1-2L50.701-42.772z"/>
			<path fill="#F1F2F2" d="M53.701-40.272c1-0.7,1.6-2.4,3-2L53.701-40.272c0.399-1.9-3,1.899-1-3
				C52.701-42.173,52.501-40.873,53.701-40.272z"/>
			<path fill="#F1F2F2" d="M27.701-40.272c0,1.1,0.2,2.399-1,3l2,2c2.1-1.2,2.3-3.3,1-5l1,3c-1.601,3.2-3.101,0.6-5,0
				c-1.2,1.7,5.1-2.9,0-3c-2.4,2.1,0.8,0.1,0-1C26.301-40.772,26.801-39.973,27.701-40.272z"/>
			<path fill="#F1F2F2" d="M46.451-33.522c-1.601-0.7-0.7-3.4-3-3l1-1L46.451-33.522z"/>
			<path fill="#F1F2F2" d="M49.201-35.522c-2,2.5,1.3-0.3-1-1c1.399,0.399,2-1.3,3-2l-2-1h2L49.201-35.522z"/>
			<path fill="#F1F2F2" d="M34.901-32.572c1.3,1,2.199,3.1,4,3c-3,1.8,1.399,3,1,5c-0.9,0.3-1.4-0.5-2-1c1.3-1.101,0-3.601-1-5
				L34.901-32.572l-2,3l3-4L34.901-32.572z"/>
			<path fill="#F1F2F2" d="M40.701-31.522c-4.366,5.125,4.466-2.875-1-1.75l5,0.75L40.701-31.522z"/>
			<path fill="#F1F2F2" d="M41.701-28.772c3.3,2.7-2.3,5.3,1,8h-2C41.001-23.473,44.401-26.072,41.701-28.772h-1l6-3L41.701-28.772z
				"/>
			<path fill="#F1F2F2" d="M36.201-28.272c-2.7,2.2-1.2,6.2-5,8c-1.4,1.7,2.8-2.2,3-4C34.201-25.873,33.801-28.572,36.201-28.272z"
				/>
			<path fill="#F1F2F2" d="M53.999-25.531c-1.587-1.101-2.629,0.929-3.875,1.407c-1.119,3.168-0.39,4.606,2.527,5.534
				c0.913-0.255,0.881-1.199,1.099-1.949c-0.255-0.913-1.197-0.881-1.947-1.097c0.914-0.256,0.881-1.199,1.099-1.949
				c-0.626,2.112,1.684,3.569,0.31,5.824l-4.455-3.026c1.385-0.452,0.932-2.196,1.368-3.337l-3.046,0.85l6.361-3.086L53.999-25.531z
				"/>
			<path fill="#F1F2F2" d="M45.701-40.272c-0.601-0.5-1.101-1.3-2-1c1.899-1.2-1.9-3.8,0-5
				C42.401-44.673,45.001-42.272,45.701-40.272z"/>
			<path fill="#F1F2F2" d="M48.367-63.902c-2.433,3.33,1.468,6.821-1.101,8.988l-0.841,0.521l-0.744-1.204l0.842-0.52l0.743,1.203
				c3.02-1.032,0.08-3.372,0.179-5.095l-1.203,0.742L48.367-63.902z"/>
			<path fill="#F1F2F2" d="M35.046-79.341l-0.478,1.33l2.661,0.958l-0.479,1.331l1.331,0.478l-0.904,0.427
				c1.272,1.059-3.052-3.427-3.889-5.907C33.401-79.782,34.338-79.67,35.046-79.341z"/>
			<polygon fill="#F1F2F2" points="40.751,-82.722 36.751,-85.722 40.751,-87.722 37.751,-85.722 			"/>
			<path fill="#F1F2F2" d="M54.371-37.393c-0.618,0.719-0.067,1.486,0.167,2.23c1.074-1.829,5.278-2.592,2.275-5.553
				c0.946,0.064,1.105,0.995,1.472,1.685c-2.397,0.314-1.455,5.132-4.672,3.489L54.371-37.393z"/>
			<path fill="#F1F2F2" d="M55.001-33.223l1-1l1,1l-1,1c1.5,2.3-2.8-5-5-1c-2.3-0.3,2,0.8,2-1l-2-1
				C52.401-34.723,53.901-34.522,55.001-33.223z"/>
			<polygon fill="#F1F2F2" points="51.251,-59.973 50.251,-58.973 51.251,-61.972 52.251,-61.972 52.251,-59.973 			"/>
			<path fill="#F1F2F2" d="M28.001-79.972c0.1,1.799-2,2.699-3,4l2-2l-1-1C24.101-78.272,27.101-80.173,28.001-79.972z"/>
			<polygon fill="#F1F2F2" points="29.001,-70.972 26.001,-70.972 29.001,-71.972 30.001,-71.972 30.001,-70.972 			"/>
			<path fill="#F1F2F2" d="M36.251-68.472c0.5-0.601,1.3-1.101,1-2c-1.1-2.401-2.6,0.199-4,0c-2.5,0,1,0.199,1-1l-1-1
				c-0.9,2.299,5.9,0.399,6-3L36.251-68.472z"/>
			<path fill="#F1F2F2" d="M45.001-59.973c-0.9-2.7-4-1.4-6,0c0.6,1.2,1.9,1,3,1c-0.9-0.3-1.4,0.5-2,1h1v1h-1c2.6,2.5-1.3-0.8,0-2
				c-1.8-2.999-3,1.4-5,1l5-3l-0.7,0.7l-1-1l0.7-0.699C41.001-58.873,43.401-64.373,45.001-59.973z"/>
			<path fill="#F1F2F2" d="M41.429-78.368c-0.432-0.909-1.365-0.86-2.155-1.065v1.394c-1.436-1.221-2.298-3.735-4.307-3.522
				c0.86-0.271,0.646-1.213,0.717-1.966c-0.789,1.605,1.437,2.613,2.154,3.851C39.059-79.261,40.71-79.744,41.429-78.368z"/>
			<path fill="#F1F2F2" d="M53.331-54.393c2.236,1.212,2.387,2.811,3.046,4.424l1.526,0.245c0.355,0.778,0.455,1.647,1.522,2.213
				c-3.762-1.064-1.325,2.867-2.039,4.26c0.812,1.836-0.303-2.408-2.54-3.03c0.763,0.908,1.677,0.86,2.542,1.063l0.515-4.506
				l-1.526-0.245l-1.014-2.785l-3.051-0.491L53.331-54.393z"/>
			<path fill="#F1F2F2" d="M34.105-21.299c1.094-0.909,1.991-0.86,2.93-1.065l-1.615,0.246l2.328-2.213L34.105-21.299z"/>
			<path fill="#F1F2F2" d="M29.905-32.05c-0.862,0.27-0.646,1.211-0.718,1.965"/>
			<path fill="#F1F2F2" d="M38.805-17.649c0.837-0.065,2.039-0.434,1.916,0.328c1.005-2.073,5.564-2.023,6.571-4.096
				C45.579-19.361,41.645-18.886,38.805-17.649z"/>
			<path fill="#F1F2F2" d="M49.251-27.723c-0.838,0.065-2.039,0.434-1.915-0.327c0.428-1.181,2.196-2.131,3.643-3.032l-0.3-0.573
				l-1.015,1.394l0.709-0.976l-3.229,0.49l-0.711,0.976c0.838-0.064,2.039-0.435,1.916,0.328l-2.027,2.786l-1.615,0.245
				l-1.014,1.393c2.967-2.989,6.158-1.556,7.886-4.915C50.941-29.156,50.523-28.287,49.251-27.723z"/>
			<path fill="#F1F2F2" d="M27.934-92.077c-1.45,1.807-1.226,3.603-3.104,5.454l-1.397,0.846l0.979-0.592l0.402-1.675l-0.978,0.592
				c0.057,1.254-1.214,2.809-2.204,4.195l7.298-7.992L27.934-92.077z"/>
			<path fill="#F1F2F2" d="M26.699-43.433l-1.698-0.29l-1.874-2.676l-1.697-0.29l-0.938-1.338l-0.38,0.523
				c-1.71-1.587,5.302,4.264,8.841,6.223C27.653-41.855,27.3-42.682,26.699-43.433z"/>
			<path fill="#F1F2F2" d="M29.905-32.05c-0.79-0.066-1.724-0.435-2.154,0.327c0.503-2.072-4.093-2.022-3.59-4.096
				C24.376-33.762,27.967-33.287,29.905-32.05z"/>
			<path fill="#F1F2F2" d="M32.424-42.393c1.794,1.212,1.363,2.811,1.436,4.424l1.436,0.245c0.072,0.778-0.143,1.647,0.718,2.213
				c-3.374-1.064-2.368,2.867-3.589,4.26c0.144,1.836,0.574-2.408-1.437-3.03c0.431,0.908,1.363,0.86,2.154,1.063l2.153-4.506
				l-1.436-0.245v-2.785l-2.872-0.491L32.424-42.393z"/>
			<path fill="#F1F2F2" d="M43.438-40.298c-2.586-1.695-3.878,1.147-4.309,3.441c1.292,0.639,2.082-0.271,2.872-0.901
				c-0.862,0.271-0.646,1.213-0.718,1.967l0.718-0.574l0.718,0.819l-0.718,0.573c3.662,0.558-1.508,0.091-1.437-1.638
				c-3.446-1.425-1.148,2.867-2.871,3.687l1.436-5.325v0.975l-1.436-0.245v-0.975C41.354-37.103,39.129-42.984,43.438-40.298z"/>
			<path fill="#F1F2F2" d="M30.251-27.723l1,1h-2l2-3C31.551-28.822,30.751-28.322,30.251-27.723z"/>
			<path fill="#F1F2F2" d="M22.676-20.011l3.267-3.344c0.745,3.002,3.219,1.573,4.82,2.106l-1.399-0.403l-0.155,1.384
				c-0.14-2.611-5.909-0.135-8.709,0.343l0.155-1.385C20.98-20.357,21.914-20.303,22.676-20.011z"/>
			<path fill="#F1F2F2" d="M30.242-23.645c0.354-3.529-0.186,2.195,2.213-0.315l-3.036,0.885L30.242-23.645z"/>
			<path fill="#F1F2F2" d="M25.836-49.211c1.125,0.412,2.526,0.73,2.714,1.973l2.755-0.946c-0.48-2.229-2.558-3.186-4.758-2.722
				l3.424,0.277c2.705,2.556-0.488,2.853-1.776,4.237c1.312,1.654-1.154-5.408-3.069-1.124c1.296,2.821,0.388-0.641-1.021-0.375
				C24.827-48.211,25.823-48.336,25.836-49.211z"/>
			<path fill="#F1F2F2" d="M21.653-66.503l2.872-3.688c1.076,2.9,3.375,1.204,5.025,1.557l-1.436-0.246v1.393
				c-0.432-2.581-5.889,0.525-8.616,1.313v-1.394C19.93-66.658,20.863-66.708,21.653-66.503z"/>
			<path fill="#F1F2F2" d="M32.46-68.562l0.782,1.33l2.195-1.384l0.781,1.329l1.098-0.691l-0.157,1.01
				c1.521-0.229-4.34-0.088-6.735-1.221C31.222-67.597,31.818-68.248,32.46-68.562z"/>
			<polygon fill="#F1F2F2" points="34.392,-62.814 34.98,-64.076 35.001,-60.723 34.108,-60.507 33.499,-62.599 			"/>
			<path fill="#F1F2F2" d="M53.783-49.046c-0.072-0.753,0.145-1.695-0.719-1.966l-1.436,0.245v-1.393l-1.436,1.638
				c2.369-1.031,4.021,0.01,4.308,2.049l0.718-0.818L53.783-49.046z"/>
			<path fill="#F1F2F2" d="M44.662-54.896c-0.432-0.908-1.365-0.86-2.154-1.064l1.437,0.245l-0.719-2.212L44.662-54.896z"/>
			<path fill="#F1F2F2" d="M46.133-50.082v-1.392l1.436,0.245v1.393c2.729,1.024-5.601-2.489-4.309,2.05
				c-1.867,1.072,2.012-0.492,0.719-1.967l-2.154,0.328C43.188-49.818,44.409-50.515,46.133-50.082z"/>
			<path fill="#F1F2F2" d="M52.501-68.222c-1.2-0.601-1-1.901-1-3c1.4,0.399,2-1.301,3-2l-1-2
				C57.001-72.522,50.201-71.623,52.501-68.222z"/>
			<path fill="#F1F2F2" d="M31.334-80.961c-0.733-0.188-1.697-0.118-1.833-1.011l0.464-1.383l-1.378-0.213l1.839-1.168
				c-1.382,2.183-0.606,3.975,1.365,4.57l-0.919,0.584L31.334-80.961z"/>
			<path fill="#F1F2F2" d="M38.967-81.465c-0.487,0.579-1.31,1.087-0.897,1.891l1.182,0.853l-0.992,0.977l2.175-0.127
				c-2.397-0.964-2.814-2.871-1.562-4.506l-1.087,0.062L38.967-81.465z"/>
			<path fill="#F1F2F2" d="M59.655-74.336l0.718,0.819c-1.292-0.639-2.082,0.27-2.872,0.901v1.394
				c2.011-1.468-2.513,2.842-3.59,1.474C58.004-68.839,56.209-73.671,59.655-74.336z"/>
			<path fill="#F1F2F2" d="M49.155-63.104c0.388-0.64,1.077-1.042,2.062-1.231l0.719,0.819c-1.293-0.639-2.082,0.27-2.873,0.901
				L49.155-63.104z"/>
			<path fill="#F1F2F2" d="M32.751-74.472c-0.201-1.147-1.624-2.885-0.505-3.36L32.751-74.472c-1.728-1.786,0.403,3.276-3.558-1.885
				C30.311-75.456,31.53-74.275,32.751-74.472z"/>
			<path fill="#F1F2F2" d="M27.704-73.905c-0.203-0.754-0.761-1.696,0.002-1.967C27.909-75.118,28.467-74.177,27.704-73.905
				l-4.576-0.737l1.014,2.786l-1.522-2.212C24.348-74.445,25.163-75.166,27.704-73.905z"/>
			<path fill="#F1F2F2" d="M42.271-67.013c2.343-1.853-4.967-5.287-1.241-7.217L42.271-67.013z"/>
			<path fill="#F1F2F2" d="M41.911-86.244c1.118,0.9,2.541,1.851,2.539,3.03l3.051,0.492c-0.15-2.188-2.182-4.022-4.571-4.67
				l3.558,1.884c2.438,3.538-0.97,2.27-2.546,2.867c1.115,2.081-0.35-5.3-3.05-2.456c0.913,3.096,0.51-0.378-1.016-0.819
				C40.689-85.852,41.758-85.482,41.911-86.244z"/>
			<path fill="#F1F2F2" d="M53.301-28.545c2.146,4.121,7.68,4.745,8.574,7.992l0.1,0.909l-1.602-0.559l-0.1-0.909l1.602,0.559
				c0.488-2.576-3.387-2.807-5.088-4.275l0.143,1.298L53.301-28.545z"/>
			<path fill="#F1F2F2" d="M47.501-39.723c-0.601,1.049,2.616-4.675,0.263-6.061C50.117-44.397,47.319-41.687,47.501-39.723z"/>
			<path fill="#F1F2F2" d="M45.563-77.997c0.814,0.065,1.882,0.435,2.036-0.327c0.001-1.181-1.422-2.13-2.54-3.031l0.51-0.573
				l0.507,1.393l-0.354-0.975l3.05,0.49l0.355,0.976c-0.814-0.065-1.882-0.435-2.035,0.327l1.014,2.786l1.525,0.245l0.507,1.393
				c-1.878-2.989-5.592-1.556-6.097-4.914C44.396-79.431,44.497-78.562,45.563-77.997z"/>
			<path fill="#F1F2F2" d="M32.322-84.407l-0.188-3.688c-3.188,2.9-4.25,1.203-6.158,1.555l1.614-0.244l-1.014,1.393
				c2.309-2.58,5.505,0.525,7.661,1.313l1.014-1.393C34.158-84.563,33.262-84.612,32.322-84.407z"/>
			<polygon fill="#F1F2F2" points="25.898,-83.148 26.8,-81.428 27.212,-83.968 26.912,-84.54 25.597,-83.722 			"/>
			<path fill="#F1F2F2" d="M21.631-11.258l7.298-7.991l-0.995-0.828c-1.45,1.807-1.226,3.602-3.104,5.453L21.631-11.258z"/>
			<polygon fill="#F1F2F2" points="50.108,-26.257 50.822,-28.225 47.592,-27.732 			"/>
			<polygon fill="#F1F2F2" points="35.001,-17.473 35.715,-19.438 32.485,-18.947 			"/>
			<path fill="#F1F2F2" d="M52.801-29.358c0.837-0.065,2.039-0.434,1.916,0.328c1.005-2.073,5.564-2.022,6.57-4.097
				C59.575-31.07,55.641-30.595,52.801-29.358z"/>
			<path fill="#F1F2F2" d="M35.12-54.457l0.055,1.632l3.792,3.512l0.054,1.632l0.604-0.23l-1.318-2.803
				c-0.347,0.628-1.176-0.378-1.869-0.939c-0.773-1.191-0.619-2.078-0.712-3.034c-0.692-0.563-1.522-1.568-1.87-0.939L35.12-54.457z
				"/>
			<polygon fill="#F1F2F2" points="38.251,-55.636 38.251,-54.223 36.837,-57.052 37.544,-57.758 38.958,-56.344 			"/>
			<polygon fill="#F1F2F2" points="29.119,-60.237 28.358,-58.691 31.43,-62.3 31.035,-62.814 28.726,-60.751 			"/>
			<path fill="#F1F2F2" d="M49.876-89.097l-2,3c0.4,2.099-0.6-3.101-3-4l3,3L49.876-89.097z"/>
			<path fill="#F1F2F2" d="M36.205-89.681c4.061-1.236,0.072,2.466,0.188,3.688c-0.912,1.253,0.854-1.368,2.141-5.899
				C37.896-91.114,37.479-90.245,36.205-89.681z"/>
			<polygon fill="#F1F2F2" points="45.557,-22.415 44.77,-21.938 43.411,-23.653 43.696,-22.557 			"/>
			<polygon fill="#F1F2F2" points="48.244,-18.192 48.53,-18.979 47.238,-18.782 			"/>
			<path fill="#F1F2F2" d="M39.367-69.535c0.604,0.444,0.941,1.166,1.043,2.165l-0.88,0.641c0.751-1.23-0.084-2.098-0.643-2.94
				L39.367-69.535z"/>
			<path fill="#F1F2F2" d="M41.53-80.979c-2.7-2.3,1.699,1.4,1-2l-1,3V-80.979z"/>
			<polygon fill="#F1F2F2" points="50.34,-68.678 50.837,-68.296 50.296,-67.679 49.297,-67.724 49.342,-68.722 			"/>
			<polygon fill="#F1F2F2" points="46.34,-44.428 46.837,-44.046 46.296,-43.429 45.297,-43.474 45.342,-44.473 			"/>
			<polygon fill="#F1F2F2" points="46.285,-37.984 46.204,-38.606 47.023,-38.659 47.698,-37.923 46.96,-37.247 			"/>
		</g>
		<g>
			<path fill="#F1F2F2" d="M12.605-56.564c-3.088,1.77-5.743,0.55-9.334-0.899c-0.287,2.04,4.955-0.197,7.898,2.048L12.605-56.564z"
				/>
			<path fill="#F1F2F2" d="M6.874-40.839c3.662,0.557-1.508,0.09-1.436-1.639c-3.447-1.425-1.149,2.868-2.873,3.688l1.437-5.325
				v0.975l-1.437-0.245v-0.975c3.662,1.392,1.437-4.49,5.744-1.805c-2.584-1.694-3.877,1.148-4.308,3.442
				c1.292,0.64,2.082-0.271,2.872-0.901V-40.839z"/>
			<path fill="#F1F2F2" d="M8.616-28.237C8.185-30.818,2.728-27.712,0-26.925v-1.394c0.431,0.91,1.364,0.86,2.154,1.065l2.872-3.688
				c1.076,2.9,3.375,1.204,5.025,1.557L8.616-28.237z"/>
			<path fill="#F1F2F2" d="M7.416-73.524c-0.071-0.778,0.144-1.646-0.718-2.212c-2.514-1.335-1.723,1.655-2.872,2.295
				c-1.795,1.435,0.862-0.41,0-1.394L2.39-75.081c1.006,2.402,4.524-3.055,2.154-5.897L7.416-73.524z"/>
			<path fill="#F1F2F2" d="M5.929-35.945l-0.508-1.394c2.745,1.032,4.018-0.007,3.563-2.047c1.07-1.205-1.883,1.334,1.014,2.784
				c-3.15-1.359-3.866,0.623-5.088,1.803l0.507,1.394c4.425,0.319-1.882,0.746-0.507-1.394l0.354,0.976l-1.524-0.245l-0.354-0.976
				C4.909-34.404,5.368-35.314,5.929-35.945z"/>
			<path fill="#F1F2F2" d="M5.896-63.997l-0.711,0.976c0.838-0.064,2.039-0.435,1.916,0.328l-2.027,2.786l-1.615,0.245L2.444-58.27
				c2.967-2.989,6.158-1.556,7.886-4.915c-0.638,0.778-1.056,1.646-2.328,2.212c-0.838,0.065-2.039,0.434-1.915-0.327L5.896-63.997z
				"/>
			<path fill="#F1F2F2" d="M8.002-23.723c-1.4-0.4-2,1.3-3,2c0,2.5,0.2-1-1-1l-1,1l1-2c-0.3,0.9,0.5,1.4,1,2l2-3L8.002-23.723z"/>
			<path fill="#F1F2F2" d="M6.075-53.219c-1.349-0.91-4.387-0.287-3.849-3.191c0.255,1.07,0.364,2.381,1.671,2.685
				c0.945,0.082,1.245-0.812,1.712-1.438l1.672,2.685L6.075-53.219z"/>
			<polygon fill="#F1F2F2" points="7.646,-49.647 2.656,-47.416 2.17,-47.72 6.524,-48.156 			"/>
		</g>
		<g>
			<path fill="#F1F2F2" d="M69.251-92.221l-3,4.999c-3.3,1.7,6.8-7.199-1-3.999l-0.7,0.7l-1-1l0.7-0.7c1,2,2.8-0.3,4-1
				c-2.4-1.2-2.4-3.8,0-5C65.251-97.32,66.751-93.82,69.251-92.221z"/>
			<path fill="#F1F2F2" d="M62.278-87.627c0.477-0.754,1.378-1.695,0.714-1.966l-1.615,0.245l1.015-1.392l-2.629,1.638
				c3.121-1.032,4.015,0.009,2.816,2.048L62.278-87.627z"/>
			<path fill="#F1F2F2" d="M8.979-86.33c-4.059,1.237-0.071-2.466-0.188-3.687l1.615-0.246l-2.817-2.048
				C10.833-91.442,5.538-86.24,8.979-86.33z"/>
			<path fill="#F1F2F2" d="M21.631-83.256l7.298-7.991l-0.995-0.828c-1.45,1.807-1.226,3.602-3.104,5.453L21.631-83.256z"/>
		</g>
	</g>
</pattern>
<pattern  x="597" y="184.25" width="55" height="67" patternUnits="userSpaceOnUse" id="New_Pattern_2" viewBox="8.125 -75.125 55 67" overflow="visible">
	<g>
		<polygon fill="none" points="8.125,-75.125 63.125,-75.125 63.125,-8.125 8.125,-8.125 		"/>
		<g>
			<path fill="#FFFFFF" d="M71.125-8.125c0,4.418-3.582,8-8,8s-8-3.582-8-8s3.582-8,8-8S71.125-12.543,71.125-8.125z"/>
			<path fill="#000022" d="M63.125-16.125c-4.418,0-8,3.582-8,8s3.582,8,8,8s8-3.582,8-8S67.543-16.125,63.125-16.125z M61.35-5.962
				c-1.271,0-2.276-0.478-2.986-1.42c-0.539-0.709-0.816-1.557-0.826-2.522c-0.008-0.777,0.161-1.503,0.502-2.158
				c0.343-0.656,0.826-1.175,1.435-1.541c0.609-0.365,1.286-0.555,2.012-0.563h0.001c0.589,0,1.145,0.135,1.685,0.399
				c0.189,0.096,0.265,0.11,0.293,0.11c0.077-0.001,0.141-0.027,0.196-0.081c0.082-0.088,0.143-0.215,0.178-0.376l0.017-0.078
				l0.37-0.003l0.219,2.799l-0.356,0.003l-0.022-0.07c-0.234-0.753-0.565-1.298-0.983-1.622c-0.407-0.315-0.901-0.477-1.47-0.477
				c-0.517,0.007-0.961,0.137-1.349,0.387c-0.389,0.25-0.697,0.652-0.917,1.196c-0.224,0.553-0.332,1.249-0.322,2.069
				c0.006,0.676,0.122,1.267,0.343,1.758c0.217,0.482,0.544,0.857,0.973,1.112c0.421,0.249,0.906,0.376,1.44,0.376
				c0.516-0.006,0.941-0.113,1.302-0.319c0.362-0.208,0.768-0.629,1.208-1.251l0.055-0.078l0.335,0.213l-0.045,0.082
				c-0.384,0.697-0.842,1.217-1.363,1.546c-0.522,0.33-1.151,0.501-1.869,0.509H61.35z M68.21-4.188
				c-0.343,0.656-0.826,1.175-1.435,1.541c-0.609,0.365-1.286,0.555-2.012,0.563h-0.001c-0.589,0-1.145-0.135-1.685-0.399
				c-0.189-0.096-0.265-0.11-0.293-0.11c-0.077,0.001-0.141,0.027-0.196,0.081c-0.082,0.088-0.143,0.215-0.178,0.376l-0.017,0.078
				l-0.37,0.003l-0.219-2.799l0.356-0.003l0.022,0.07c0.234,0.753,0.565,1.298,0.983,1.622c0.407,0.315,0.901,0.477,1.47,0.477
				c0.517-0.007,0.961-0.137,1.349-0.387c0.389-0.25,0.697-0.652,0.917-1.196c0.224-0.553,0.332-1.249,0.322-2.069
				c-0.006-0.676-0.122-1.267-0.343-1.758c-0.217-0.482-0.544-0.857-0.973-1.112c-0.421-0.249-0.906-0.376-1.44-0.376
				c-0.516,0.006-0.941,0.113-1.302,0.319c-0.362,0.208-0.768,0.629-1.208,1.251l-0.055,0.078l-0.335-0.213l0.045-0.082
				c0.384-0.697,0.842-1.217,1.363-1.546c0.522-0.33,1.151-0.501,1.869-0.509H64.9c1.271,0,2.276,0.478,2.986,1.42
				c0.539,0.709,0.816,1.557,0.826,2.522C68.721-5.568,68.552-4.843,68.21-4.188z"/>
			<path fill="none" stroke="#FFFFFF" stroke-width="0.25" stroke-miterlimit="10" d="M71.125-8.125c0,4.418-3.582,8-8,8
				s-8-3.582-8-8s3.582-8,8-8S71.125-12.543,71.125-8.125z"/>
			
				<linearGradient id="SVGID_1_" gradientUnits="userSpaceOnUse" x1="63.125" y1="-16130.0967" x2="63.125" y2="-16117.6533" gradientTransform="matrix(1 0 0 -1 0 -16132)">
				<stop  offset="0" style="stop-color:#818595"/>
				<stop  offset="1" style="stop-color:#161A36"/>
			</linearGradient>
			<path fill="url(#SVGID_1_)" d="M64.226-14.194l0.219,2.799l-0.356,0.003l-0.022-0.07c-0.234-0.753-0.565-1.298-0.983-1.622
				c-0.407-0.315-0.901-0.477-1.47-0.477c-0.517,0.007-0.961,0.137-1.349,0.387c-0.389,0.25-0.697,0.652-0.917,1.196
				c-0.224,0.553-0.332,1.249-0.322,2.069c0.006,0.676,0.122,1.267,0.343,1.758c0.217,0.482,0.544,0.857,0.973,1.112
				c0.421,0.249,0.906,0.376,1.44,0.376c0.516-0.006,0.941-0.113,1.302-0.319c0.362-0.208,0.768-0.629,1.208-1.251l0.055-0.078
				l0.335,0.213l-0.045,0.082c-0.384,0.697-0.842,1.217-1.363,1.546c-0.522,0.33-1.151,0.501-1.869,0.509H61.35
				c-1.271,0-2.276-0.478-2.986-1.42c-0.539-0.709-0.816-1.557-0.826-2.522c-0.008-0.777,0.161-1.503,0.502-2.158
				c0.343-0.656,0.826-1.175,1.435-1.541c0.609-0.365,1.286-0.555,2.012-0.563h0.001c0.589,0,1.145,0.135,1.685,0.399
				c0.189,0.096,0.265,0.11,0.293,0.11c0.077-0.001,0.141-0.027,0.196-0.081c0.082-0.088,0.143-0.215,0.178-0.376l0.017-0.078
				L64.226-14.194 M64.9-10.288c1.271,0,2.276,0.478,2.986,1.42c0.539,0.709,0.816,1.557,0.826,2.522
				c0.008,0.777-0.161,1.503-0.502,2.158c-0.343,0.656-0.826,1.175-1.435,1.541c-0.609,0.365-1.286,0.555-2.012,0.563h-0.001
				c-0.589,0-1.145-0.135-1.685-0.399c-0.189-0.096-0.265-0.11-0.293-0.11c-0.077,0.001-0.141,0.027-0.196,0.081
				c-0.082,0.088-0.143,0.215-0.178,0.376l-0.017,0.078l-0.37,0.003l-0.219-2.799l0.356-0.003l0.022,0.07
				c0.234,0.753,0.565,1.298,0.983,1.622c0.407,0.315,0.901,0.477,1.47,0.477c0.517-0.007,0.961-0.137,1.349-0.387
				c0.389-0.25,0.697-0.652,0.917-1.196c0.224-0.553,0.332-1.249,0.322-2.069c-0.006-0.676-0.122-1.267-0.343-1.758
				c-0.217-0.482-0.544-0.857-0.973-1.112c-0.421-0.249-0.906-0.376-1.44-0.376c-0.516,0.006-0.941,0.113-1.302,0.319
				c-0.362,0.208-0.768,0.629-1.208,1.251l-0.055,0.078l-0.335-0.213l0.045-0.082c0.384-0.697,0.842-1.217,1.363-1.546
				c0.522-0.33,1.151-0.501,1.869-0.509H64.9 M64.365-14.347l-0.14,0.002l-0.37,0.004h-0.12l-0.025,0.117l-0.017,0.078
				c-0.029,0.133-0.078,0.238-0.141,0.306c-0.022,0.022-0.049,0.033-0.088,0.034c0.003,0-0.051-0.007-0.224-0.095
				c-0.571-0.28-1.144-0.415-1.752-0.415c-0.755,0.008-1.458,0.204-2.09,0.584c-0.633,0.379-1.134,0.918-1.491,1.6
				c-0.353,0.678-0.528,1.428-0.519,2.229c0.009,1,0.298,1.878,0.856,2.612c0.74,0.981,1.785,1.479,3.105,1.479h0.055
				c0.749-0.008,1.403-0.188,1.949-0.532c0.542-0.343,1.018-0.882,1.414-1.601l0.045-0.082l0.068-0.123l-0.119-0.076l-0.335-0.213
				l-0.121-0.076l-0.082,0.117L64.169-8.32c-0.428,0.604-0.818,1.011-1.161,1.208c-0.343,0.195-0.745,0.294-1.229,0.299
				c-0.505,0-0.964-0.119-1.362-0.354c-0.402-0.239-0.709-0.591-0.913-1.045c-0.212-0.474-0.323-1.044-0.33-1.698
				c-0.009-0.801,0.095-1.477,0.312-2.012c0.208-0.514,0.497-0.894,0.859-1.127c0.369-0.236,0.784-0.355,1.27-0.361
				c0.532,0,0.996,0.15,1.376,0.445c0.393,0.305,0.707,0.825,0.932,1.547l0.022,0.072l0.034,0.105l0.111-0.002l0.356-0.002
				l0.161-0.002l-0.013-0.16l-0.219-2.799L64.365-14.347L64.365-14.347z M64.9-10.438h-0.055c-0.749,0.008-1.403,0.188-1.949,0.532
				c-0.542,0.343-1.018,0.882-1.414,1.601l-0.045,0.082l-0.068,0.123l0.119,0.076l0.335,0.213l0.121,0.076l0.082-0.117l0.055-0.077
				c0.428-0.604,0.818-1.011,1.161-1.208c0.343-0.195,0.745-0.294,1.229-0.299c0.505,0,0.964,0.119,1.362,0.354
				c0.402,0.239,0.709,0.591,0.913,1.045c0.212,0.474,0.323,1.044,0.33,1.698c0.009,0.801-0.095,1.477-0.312,2.012
				c-0.208,0.514-0.497,0.894-0.859,1.127c-0.369,0.236-0.784,0.355-1.27,0.361c-0.532,0-0.996-0.15-1.376-0.445
				c-0.393-0.305-0.707-0.825-0.932-1.547l-0.022-0.072l-0.034-0.105l-0.111,0.002l-0.356,0.002l-0.161,0.002l0.013,0.16
				l0.219,2.799l0.011,0.141l0.14-0.002l0.37-0.004h0.12l0.025-0.117l0.017-0.078c0.029-0.133,0.078-0.238,0.141-0.306
				c0.022-0.022,0.049-0.033,0.088-0.034c-0.003,0,0.051,0.007,0.224,0.095c0.571,0.28,1.144,0.415,1.752,0.415
				c0.755-0.008,1.458-0.204,2.09-0.584c0.633-0.379,1.134-0.918,1.491-1.6c0.353-0.678,0.528-1.428,0.519-2.229
				c-0.009-1-0.298-1.878-0.856-2.612C67.266-9.94,66.221-10.438,64.9-10.438L64.9-10.438z"/>
		</g>
		<g>
			<path fill="#FFFFFF" d="M16.125-8.125c0,4.418-3.582,8-8,8s-8-3.582-8-8s3.582-8,8-8S16.125-12.543,16.125-8.125z"/>
			<path fill="#000022" d="M8.125-16.125c-4.418,0-8,3.582-8,8s3.582,8,8,8s8-3.582,8-8S12.543-16.125,8.125-16.125z M6.35-5.962
				c-1.271,0-2.276-0.478-2.986-1.42C2.825-8.091,2.547-8.938,2.538-9.904c-0.008-0.777,0.161-1.503,0.502-2.158
				c0.343-0.656,0.826-1.175,1.435-1.541c0.609-0.365,1.286-0.555,2.012-0.563h0.001c0.589,0,1.145,0.135,1.685,0.399
				c0.189,0.096,0.265,0.11,0.293,0.11c0.077-0.001,0.141-0.027,0.196-0.081c0.082-0.088,0.143-0.215,0.178-0.376l0.017-0.078
				l0.37-0.003l0.219,2.799l-0.356,0.003l-0.022-0.07c-0.234-0.753-0.565-1.298-0.983-1.622c-0.407-0.315-0.901-0.477-1.47-0.477
				c-0.517,0.007-0.961,0.137-1.349,0.387c-0.389,0.25-0.697,0.652-0.917,1.196c-0.224,0.553-0.332,1.249-0.322,2.069
				c0.006,0.676,0.122,1.267,0.343,1.758c0.217,0.482,0.544,0.857,0.973,1.112c0.421,0.249,0.906,0.376,1.44,0.376
				c0.516-0.006,0.941-0.113,1.302-0.319C8.445-7.19,8.851-7.611,9.292-8.233l0.055-0.078l0.335,0.213L9.636-8.017
				C9.252-7.319,8.794-6.8,8.273-6.471C7.751-6.141,7.123-5.97,6.405-5.962H6.35z M13.21-4.188
				c-0.343,0.656-0.826,1.175-1.435,1.541c-0.609,0.365-1.286,0.555-2.012,0.563H9.763c-0.589,0-1.145-0.135-1.685-0.399
				c-0.189-0.096-0.265-0.11-0.293-0.11C7.708-2.593,7.644-2.566,7.589-2.513C7.507-2.425,7.446-2.298,7.411-2.137L7.394-2.059
				l-0.37,0.003L6.806-4.854l0.356-0.003l0.022,0.07C7.419-4.034,7.75-3.489,8.167-3.165c0.407,0.315,0.901,0.477,1.47,0.477
				c0.517-0.007,0.961-0.137,1.349-0.387c0.389-0.25,0.697-0.652,0.917-1.196c0.224-0.553,0.332-1.249,0.322-2.069
				c-0.006-0.676-0.122-1.267-0.343-1.758c-0.217-0.482-0.544-0.857-0.973-1.112c-0.421-0.249-0.906-0.376-1.44-0.376
				C8.954-9.581,8.528-9.474,8.167-9.268C7.806-9.06,7.399-8.639,6.959-8.017L6.904-7.938L6.569-8.151l0.045-0.082
				C6.998-8.931,7.457-9.45,7.977-9.779c0.522-0.33,1.151-0.501,1.869-0.509H9.9c1.271,0,2.276,0.478,2.986,1.42
				c0.539,0.709,0.816,1.557,0.826,2.522C13.721-5.568,13.552-4.843,13.21-4.188z"/>
			<path fill="none" stroke="#FFFFFF" stroke-width="0.25" stroke-miterlimit="10" d="M16.125-8.125c0,4.418-3.582,8-8,8
				s-8-3.582-8-8s3.582-8,8-8S16.125-12.543,16.125-8.125z"/>
			
				<linearGradient id="SVGID_2_" gradientUnits="userSpaceOnUse" x1="8.125" y1="-16130.0967" x2="8.125" y2="-16117.6533" gradientTransform="matrix(1 0 0 -1 0 -16132)">
				<stop  offset="0" style="stop-color:#818595"/>
				<stop  offset="1" style="stop-color:#161A36"/>
			</linearGradient>
			<path fill="url(#SVGID_2_)" d="M9.226-14.194l0.219,2.799l-0.356,0.003l-0.022-0.07c-0.234-0.753-0.565-1.298-0.983-1.622
				c-0.407-0.315-0.901-0.477-1.47-0.477c-0.517,0.007-0.961,0.137-1.349,0.387c-0.389,0.25-0.697,0.652-0.917,1.196
				c-0.224,0.553-0.332,1.249-0.322,2.069c0.006,0.676,0.122,1.267,0.343,1.758c0.217,0.482,0.544,0.857,0.973,1.112
				c0.421,0.249,0.906,0.376,1.44,0.376c0.516-0.006,0.941-0.113,1.302-0.319C8.445-7.19,8.851-7.611,9.292-8.233l0.055-0.078
				l0.335,0.213L9.636-8.017C9.252-7.319,8.794-6.8,8.273-6.471C7.751-6.141,7.123-5.97,6.405-5.962H6.35
				c-1.271,0-2.276-0.478-2.986-1.42C2.825-8.091,2.547-8.938,2.538-9.904c-0.008-0.777,0.161-1.503,0.502-2.158
				c0.343-0.656,0.826-1.175,1.435-1.541c0.609-0.365,1.286-0.555,2.012-0.563h0.001c0.589,0,1.145,0.135,1.685,0.399
				c0.189,0.096,0.265,0.11,0.293,0.11c0.077-0.001,0.141-0.027,0.196-0.081c0.082-0.088,0.143-0.215,0.178-0.376l0.017-0.078
				L9.226-14.194 M9.9-10.288c1.271,0,2.276,0.478,2.986,1.42c0.539,0.709,0.816,1.557,0.826,2.522
				c0.008,0.777-0.161,1.503-0.502,2.158c-0.343,0.656-0.826,1.175-1.435,1.541c-0.609,0.365-1.286,0.555-2.012,0.563H9.763
				c-0.589,0-1.145-0.135-1.685-0.399c-0.189-0.096-0.265-0.11-0.293-0.11C7.708-2.593,7.644-2.566,7.589-2.513
				C7.507-2.425,7.446-2.298,7.411-2.137L7.394-2.059l-0.37,0.003L6.806-4.854l0.356-0.003l0.022,0.07
				C7.419-4.034,7.75-3.489,8.167-3.165c0.407,0.315,0.901,0.477,1.47,0.477c0.517-0.007,0.961-0.137,1.349-0.387
				c0.389-0.25,0.697-0.652,0.917-1.196c0.224-0.553,0.332-1.249,0.322-2.069c-0.006-0.676-0.122-1.267-0.343-1.758
				c-0.217-0.482-0.544-0.857-0.973-1.112c-0.421-0.249-0.906-0.376-1.44-0.376C8.954-9.581,8.528-9.474,8.167-9.268
				C7.806-9.06,7.399-8.639,6.959-8.017L6.904-7.938L6.569-8.151l0.045-0.082C6.998-8.931,7.457-9.45,7.977-9.779
				c0.522-0.33,1.151-0.501,1.869-0.509H9.9 M9.365-14.347l-0.14,0.002l-0.37,0.004h-0.12L8.71-14.224l-0.017,0.078
				c-0.029,0.133-0.078,0.238-0.141,0.306c-0.022,0.022-0.049,0.033-0.088,0.034c0.003,0-0.051-0.007-0.224-0.095
				c-0.571-0.28-1.144-0.415-1.752-0.415c-0.755,0.008-1.458,0.204-2.09,0.584c-0.633,0.379-1.134,0.918-1.491,1.6
				c-0.353,0.678-0.528,1.428-0.519,2.229c0.009,1,0.298,1.878,0.856,2.612C3.984-6.31,5.029-5.812,6.35-5.812h0.055
				c0.749-0.008,1.403-0.188,1.949-0.532c0.542-0.343,1.018-0.882,1.414-1.601l0.045-0.082l0.068-0.123L9.762-8.226L9.427-8.438
				L9.306-8.515L9.224-8.397L9.169-8.32C8.741-7.716,8.351-7.31,8.008-7.112C7.665-6.917,7.263-6.818,6.779-6.813
				c-0.505,0-0.964-0.119-1.362-0.354C5.016-7.407,4.708-7.759,4.504-8.213c-0.212-0.474-0.323-1.044-0.33-1.698
				c-0.009-0.801,0.095-1.477,0.312-2.012c0.208-0.514,0.497-0.894,0.859-1.127c0.369-0.236,0.784-0.355,1.27-0.361
				c0.532,0,0.996,0.15,1.376,0.445c0.393,0.305,0.707,0.825,0.932,1.547l0.022,0.072l0.034,0.105l0.111-0.002l0.356-0.002
				l0.161-0.002l-0.013-0.16l-0.219-2.799L9.365-14.347L9.365-14.347z M9.9-10.438H9.846c-0.749,0.008-1.403,0.188-1.949,0.532
				C7.354-9.563,6.879-9.024,6.483-8.306L6.438-8.224L6.369-8.101l0.119,0.076l0.335,0.213l0.121,0.076l0.082-0.117L7.082-7.93
				C7.509-8.534,7.9-8.94,8.242-9.138c0.343-0.195,0.745-0.294,1.229-0.299c0.505,0,0.964,0.119,1.362,0.354
				c0.402,0.239,0.709,0.591,0.913,1.045c0.212,0.474,0.323,1.044,0.33,1.698c0.009,0.801-0.095,1.477-0.312,2.012
				c-0.208,0.514-0.497,0.894-0.859,1.127c-0.369,0.236-0.784,0.355-1.27,0.361c-0.532,0-0.996-0.15-1.376-0.445
				C7.866-3.589,7.553-4.109,7.328-4.831L7.305-4.903L7.271-5.009L7.161-5.007L6.804-5.005L6.644-5.003l0.013,0.16l0.219,2.799
				l0.011,0.141l0.14-0.002l0.37-0.004h0.12l0.025-0.117l0.017-0.078C7.586-2.237,7.635-2.343,7.699-2.41
				c0.022-0.022,0.049-0.033,0.088-0.034c-0.003,0,0.051,0.007,0.224,0.095c0.571,0.28,1.144,0.415,1.752,0.415
				c0.755-0.008,1.458-0.204,2.09-0.584c0.633-0.379,1.134-0.918,1.491-1.6c0.353-0.678,0.528-1.428,0.519-2.229
				c-0.009-1-0.298-1.878-0.856-2.612C12.266-9.94,11.221-10.438,9.9-10.438L9.9-10.438z"/>
		</g>
		<g>
			<path fill="#FFFFFF" d="M43.625-41.625c0,4.418-3.582,8-8,8s-8-3.582-8-8s3.582-8,8-8S43.625-46.043,43.625-41.625z"/>
			<path fill="#000022" d="M35.625-49.625c-4.418,0-8,3.582-8,8s3.582,8,8,8s8-3.582,8-8S40.043-49.625,35.625-49.625z
				 M33.85-39.462c-1.271,0-2.276-0.478-2.986-1.42c-0.539-0.709-0.816-1.557-0.826-2.522c-0.008-0.777,0.161-1.503,0.502-2.158
				c0.343-0.656,0.826-1.175,1.435-1.541c0.609-0.365,1.286-0.555,2.012-0.563h0.001c0.589,0,1.145,0.135,1.685,0.399
				c0.189,0.096,0.265,0.11,0.293,0.11c0.077-0.001,0.141-0.027,0.196-0.081c0.082-0.088,0.143-0.215,0.178-0.376l0.017-0.078
				l0.37-0.003l0.219,2.799l-0.356,0.003l-0.022-0.07c-0.234-0.753-0.565-1.298-0.983-1.622c-0.407-0.315-0.901-0.477-1.47-0.477
				c-0.517,0.007-0.961,0.137-1.349,0.387c-0.389,0.25-0.697,0.652-0.917,1.196c-0.224,0.553-0.332,1.249-0.322,2.069
				c0.006,0.676,0.122,1.267,0.343,1.758c0.217,0.482,0.544,0.857,0.973,1.112c0.421,0.249,0.906,0.376,1.44,0.376
				c0.516-0.006,0.941-0.113,1.302-0.319c0.362-0.208,0.768-0.629,1.208-1.251l0.055-0.078l0.335,0.213l-0.045,0.082
				c-0.384,0.697-0.842,1.217-1.363,1.546c-0.522,0.33-1.151,0.501-1.869,0.509H33.85z M40.71-37.688
				c-0.343,0.656-0.826,1.175-1.435,1.541c-0.609,0.365-1.286,0.555-2.012,0.563h-0.001c-0.589,0-1.145-0.135-1.685-0.399
				c-0.189-0.096-0.265-0.11-0.293-0.11c-0.077,0.001-0.141,0.027-0.196,0.081c-0.082,0.088-0.143,0.215-0.178,0.376l-0.017,0.078
				l-0.37,0.003l-0.219-2.799l0.356-0.003l0.022,0.07c0.234,0.753,0.565,1.298,0.983,1.622c0.407,0.315,0.901,0.477,1.47,0.477
				c0.517-0.007,0.961-0.137,1.349-0.387c0.389-0.25,0.697-0.652,0.917-1.196c0.224-0.553,0.332-1.249,0.322-2.069
				c-0.006-0.676-0.122-1.267-0.343-1.758c-0.217-0.482-0.544-0.857-0.973-1.112c-0.421-0.249-0.906-0.376-1.44-0.376
				c-0.516,0.006-0.941,0.113-1.302,0.319c-0.362,0.208-0.768,0.629-1.208,1.251l-0.055,0.078l-0.335-0.213l0.045-0.082
				c0.384-0.697,0.842-1.217,1.363-1.546c0.522-0.33,1.151-0.501,1.869-0.509H37.4c1.271,0,2.276,0.478,2.986,1.42
				c0.539,0.709,0.816,1.557,0.826,2.522C41.221-39.068,41.052-38.343,40.71-37.688z"/>
			<path fill="none" stroke="#FFFFFF" stroke-width="0.25" stroke-miterlimit="10" d="M43.625-41.625c0,4.418-3.582,8-8,8
				s-8-3.582-8-8s3.582-8,8-8S43.625-46.043,43.625-41.625z"/>
			
				<linearGradient id="SVGID_3_" gradientUnits="userSpaceOnUse" x1="35.625" y1="-16096.5967" x2="35.625" y2="-16084.1533" gradientTransform="matrix(1 0 0 -1 0 -16132)">
				<stop  offset="0" style="stop-color:#818595"/>
				<stop  offset="1" style="stop-color:#161A36"/>
			</linearGradient>
			<path fill="url(#SVGID_3_)" d="M36.726-47.694l0.219,2.799l-0.356,0.003l-0.022-0.07c-0.234-0.753-0.565-1.298-0.983-1.622
				c-0.407-0.315-0.901-0.477-1.47-0.477c-0.517,0.007-0.961,0.137-1.349,0.387c-0.389,0.25-0.697,0.652-0.917,1.196
				c-0.224,0.553-0.332,1.249-0.322,2.069c0.006,0.676,0.122,1.267,0.343,1.758c0.217,0.482,0.544,0.857,0.973,1.112
				c0.421,0.249,0.906,0.376,1.44,0.376c0.516-0.006,0.941-0.113,1.302-0.319c0.362-0.208,0.768-0.629,1.208-1.251l0.055-0.078
				l0.335,0.213l-0.045,0.082c-0.384,0.697-0.842,1.217-1.363,1.546c-0.522,0.33-1.151,0.501-1.869,0.509H33.85
				c-1.271,0-2.276-0.478-2.986-1.42c-0.539-0.709-0.816-1.557-0.826-2.522c-0.008-0.777,0.161-1.503,0.502-2.158
				c0.343-0.656,0.826-1.175,1.435-1.541c0.609-0.365,1.286-0.555,2.012-0.563h0.001c0.589,0,1.145,0.135,1.685,0.399
				c0.189,0.096,0.265,0.11,0.293,0.11c0.077-0.001,0.141-0.027,0.196-0.081c0.082-0.088,0.143-0.215,0.178-0.376l0.017-0.078
				L36.726-47.694 M37.4-43.788c1.271,0,2.276,0.478,2.986,1.42c0.539,0.709,0.816,1.557,0.826,2.522
				c0.008,0.777-0.161,1.503-0.502,2.158c-0.343,0.656-0.826,1.175-1.435,1.541c-0.609,0.365-1.286,0.555-2.012,0.563h-0.001
				c-0.589,0-1.145-0.135-1.685-0.399c-0.189-0.096-0.265-0.11-0.293-0.11c-0.077,0.001-0.141,0.027-0.196,0.081
				c-0.082,0.088-0.143,0.215-0.178,0.376l-0.017,0.078l-0.37,0.003l-0.219-2.799l0.356-0.003l0.022,0.07
				c0.234,0.753,0.565,1.298,0.983,1.622c0.407,0.315,0.901,0.477,1.47,0.477c0.517-0.007,0.961-0.137,1.349-0.387
				c0.389-0.25,0.697-0.652,0.917-1.196c0.224-0.553,0.332-1.249,0.322-2.069c-0.006-0.676-0.122-1.267-0.343-1.758
				c-0.217-0.482-0.544-0.857-0.973-1.112c-0.421-0.249-0.906-0.376-1.44-0.376c-0.516,0.006-0.941,0.113-1.302,0.319
				c-0.362,0.208-0.768,0.629-1.208,1.251l-0.055,0.078l-0.335-0.213l0.045-0.082c0.384-0.697,0.842-1.217,1.363-1.546
				c0.522-0.33,1.151-0.501,1.869-0.509H37.4 M36.865-47.847l-0.14,0.002l-0.37,0.004h-0.12l-0.025,0.117l-0.017,0.078
				c-0.029,0.133-0.078,0.238-0.141,0.306c-0.022,0.022-0.049,0.033-0.088,0.034c0.003,0-0.051-0.007-0.224-0.095
				c-0.571-0.28-1.144-0.415-1.752-0.415c-0.755,0.008-1.458,0.204-2.09,0.584c-0.633,0.379-1.134,0.918-1.491,1.6
				c-0.353,0.678-0.528,1.428-0.519,2.229c0.009,1,0.298,1.878,0.856,2.612c0.74,0.981,1.785,1.479,3.105,1.479h0.055
				c0.749-0.008,1.403-0.188,1.949-0.532c0.542-0.343,1.018-0.882,1.414-1.601l0.045-0.082l0.068-0.123l-0.119-0.076l-0.335-0.213
				l-0.121-0.076l-0.082,0.117l-0.055,0.077c-0.428,0.604-0.818,1.011-1.161,1.208c-0.343,0.195-0.745,0.294-1.229,0.299
				c-0.505,0-0.964-0.119-1.362-0.354c-0.402-0.239-0.709-0.591-0.913-1.045c-0.212-0.474-0.323-1.044-0.33-1.698
				c-0.009-0.801,0.095-1.477,0.312-2.012c0.208-0.514,0.497-0.894,0.859-1.127c0.369-0.236,0.784-0.355,1.27-0.361
				c0.532,0,0.996,0.15,1.376,0.445c0.393,0.305,0.707,0.825,0.932,1.547l0.022,0.072l0.034,0.105l0.111-0.002l0.356-0.002
				l0.161-0.002l-0.013-0.16l-0.219-2.799L36.865-47.847L36.865-47.847z M37.4-43.938h-0.055c-0.749,0.008-1.403,0.188-1.949,0.532
				c-0.542,0.343-1.018,0.882-1.414,1.601l-0.045,0.082l-0.068,0.123l0.119,0.076l0.335,0.213l0.121,0.076l0.082-0.117l0.055-0.077
				c0.428-0.604,0.818-1.011,1.161-1.208c0.343-0.195,0.745-0.294,1.229-0.299c0.505,0,0.964,0.119,1.362,0.354
				c0.402,0.239,0.709,0.591,0.913,1.045c0.212,0.474,0.323,1.044,0.33,1.698c0.009,0.801-0.095,1.477-0.312,2.012
				c-0.208,0.514-0.497,0.894-0.859,1.127c-0.369,0.236-0.784,0.355-1.27,0.361c-0.532,0-0.996-0.15-1.376-0.445
				c-0.393-0.305-0.707-0.825-0.932-1.547l-0.022-0.072l-0.034-0.105l-0.111,0.002l-0.356,0.002l-0.161,0.002l0.013,0.16
				l0.219,2.799l0.011,0.141l0.14-0.002l0.37-0.004h0.12l0.025-0.117l0.017-0.078c0.029-0.133,0.078-0.238,0.141-0.306
				c0.022-0.022,0.049-0.033,0.088-0.034c-0.003,0,0.051,0.007,0.224,0.095c0.571,0.28,1.144,0.415,1.752,0.415
				c0.755-0.008,1.458-0.204,2.09-0.584c0.633-0.379,1.134-0.918,1.491-1.6c0.353-0.678,0.528-1.428,0.519-2.229
				c-0.009-1-0.298-1.878-0.856-2.612C39.766-43.44,38.721-43.938,37.4-43.938L37.4-43.938z"/>
		</g>
		<g>
			<path fill="#FFFFFF" d="M71.125-75.125c0,4.418-3.582,8-8,8s-8-3.582-8-8s3.582-8,8-8S71.125-79.543,71.125-75.125z"/>
			<path fill="#000022" d="M63.125-83.125c-4.418,0-8,3.582-8,8s3.582,8,8,8s8-3.582,8-8S67.543-83.125,63.125-83.125z
				 M61.35-72.962c-1.271,0-2.276-0.478-2.986-1.42c-0.539-0.709-0.816-1.557-0.826-2.522c-0.008-0.777,0.161-1.503,0.502-2.158
				c0.343-0.656,0.826-1.175,1.435-1.541c0.609-0.365,1.286-0.555,2.012-0.563h0.001c0.589,0,1.145,0.135,1.685,0.399
				c0.189,0.096,0.265,0.11,0.293,0.11c0.077-0.001,0.141-0.027,0.196-0.081c0.082-0.088,0.143-0.215,0.178-0.376l0.017-0.078
				l0.37-0.003l0.219,2.799l-0.356,0.003l-0.022-0.07c-0.234-0.753-0.565-1.298-0.983-1.622c-0.407-0.315-0.901-0.477-1.47-0.477
				c-0.517,0.007-0.961,0.137-1.349,0.387c-0.389,0.25-0.697,0.652-0.917,1.196c-0.224,0.553-0.332,1.249-0.322,2.069
				c0.006,0.676,0.122,1.267,0.343,1.758c0.217,0.482,0.544,0.857,0.973,1.112c0.421,0.249,0.906,0.376,1.44,0.376
				c0.516-0.006,0.941-0.113,1.302-0.319c0.362-0.208,0.768-0.629,1.208-1.251l0.055-0.078l0.335,0.213l-0.045,0.082
				c-0.384,0.697-0.842,1.217-1.363,1.546c-0.522,0.33-1.151,0.501-1.869,0.509H61.35z M68.21-71.188
				c-0.343,0.656-0.826,1.175-1.435,1.541c-0.609,0.365-1.286,0.555-2.012,0.563h-0.001c-0.589,0-1.145-0.135-1.685-0.399
				c-0.189-0.096-0.265-0.11-0.293-0.11c-0.077,0.001-0.141,0.027-0.196,0.081c-0.082,0.088-0.143,0.215-0.178,0.376l-0.017,0.078
				l-0.37,0.003l-0.219-2.799l0.356-0.003l0.022,0.07c0.234,0.753,0.565,1.298,0.983,1.622c0.407,0.315,0.901,0.477,1.47,0.477
				c0.517-0.007,0.961-0.137,1.349-0.387c0.389-0.25,0.697-0.652,0.917-1.196c0.224-0.553,0.332-1.249,0.322-2.069
				c-0.006-0.676-0.122-1.267-0.343-1.758c-0.217-0.482-0.544-0.857-0.973-1.112c-0.421-0.249-0.906-0.376-1.44-0.376
				c-0.516,0.006-0.941,0.113-1.302,0.319c-0.362,0.208-0.768,0.629-1.208,1.251l-0.055,0.078l-0.335-0.213l0.045-0.082
				c0.384-0.697,0.842-1.217,1.363-1.546c0.522-0.33,1.151-0.501,1.869-0.509H64.9c1.271,0,2.276,0.478,2.986,1.42
				c0.539,0.709,0.816,1.557,0.826,2.522C68.721-72.568,68.552-71.843,68.21-71.188z"/>
			<path fill="none" stroke="#FFFFFF" stroke-width="0.25" stroke-miterlimit="10" d="M71.125-75.125c0,4.418-3.582,8-8,8
				s-8-3.582-8-8s3.582-8,8-8S71.125-79.543,71.125-75.125z"/>
			
				<linearGradient id="SVGID_4_" gradientUnits="userSpaceOnUse" x1="63.125" y1="-16063.0967" x2="63.125" y2="-16050.6533" gradientTransform="matrix(1 0 0 -1 0 -16132)">
				<stop  offset="0" style="stop-color:#818595"/>
				<stop  offset="1" style="stop-color:#161A36"/>
			</linearGradient>
			<path fill="url(#SVGID_4_)" d="M64.226-81.194l0.219,2.799l-0.356,0.003l-0.022-0.07c-0.234-0.753-0.565-1.298-0.983-1.622
				c-0.407-0.315-0.901-0.477-1.47-0.477c-0.517,0.007-0.961,0.137-1.349,0.387c-0.389,0.25-0.697,0.652-0.917,1.196
				c-0.224,0.553-0.332,1.249-0.322,2.069c0.006,0.676,0.122,1.267,0.343,1.758c0.217,0.482,0.544,0.857,0.973,1.112
				c0.421,0.249,0.906,0.376,1.44,0.376c0.516-0.006,0.941-0.113,1.302-0.319c0.362-0.208,0.768-0.629,1.208-1.251l0.055-0.078
				l0.335,0.213l-0.045,0.082c-0.384,0.697-0.842,1.217-1.363,1.546c-0.522,0.33-1.151,0.501-1.869,0.509H61.35
				c-1.271,0-2.276-0.478-2.986-1.42c-0.539-0.709-0.816-1.557-0.826-2.522c-0.008-0.777,0.161-1.503,0.502-2.158
				c0.343-0.656,0.826-1.175,1.435-1.541c0.609-0.365,1.286-0.555,2.012-0.563h0.001c0.589,0,1.145,0.135,1.685,0.399
				c0.189,0.096,0.265,0.11,0.293,0.11c0.077-0.001,0.141-0.027,0.196-0.081c0.082-0.088,0.143-0.215,0.178-0.376l0.017-0.078
				L64.226-81.194 M64.9-77.288c1.271,0,2.276,0.478,2.986,1.42c0.539,0.709,0.816,1.557,0.826,2.522
				c0.008,0.777-0.161,1.503-0.502,2.158c-0.343,0.656-0.826,1.175-1.435,1.541c-0.609,0.365-1.286,0.555-2.012,0.563h-0.001
				c-0.589,0-1.145-0.135-1.685-0.399c-0.189-0.096-0.265-0.11-0.293-0.11c-0.077,0.001-0.141,0.027-0.196,0.081
				c-0.082,0.088-0.143,0.215-0.178,0.376l-0.017,0.078l-0.37,0.003l-0.219-2.799l0.356-0.003l0.022,0.07
				c0.234,0.753,0.565,1.298,0.983,1.622c0.407,0.315,0.901,0.477,1.47,0.477c0.517-0.007,0.961-0.137,1.349-0.387
				c0.389-0.25,0.697-0.652,0.917-1.196c0.224-0.553,0.332-1.249,0.322-2.069c-0.006-0.676-0.122-1.267-0.343-1.758
				c-0.217-0.482-0.544-0.857-0.973-1.112c-0.421-0.249-0.906-0.376-1.44-0.376c-0.516,0.006-0.941,0.113-1.302,0.319
				c-0.362,0.208-0.768,0.629-1.208,1.251l-0.055,0.078l-0.335-0.213l0.045-0.082c0.384-0.697,0.842-1.217,1.363-1.546
				c0.522-0.33,1.151-0.501,1.869-0.509H64.9 M64.365-81.347l-0.14,0.002l-0.37,0.004h-0.12l-0.025,0.117l-0.017,0.078
				c-0.029,0.133-0.078,0.238-0.141,0.306c-0.022,0.022-0.049,0.033-0.088,0.034c0.003,0-0.051-0.007-0.224-0.095
				c-0.571-0.28-1.144-0.415-1.752-0.415c-0.755,0.008-1.458,0.204-2.09,0.584c-0.633,0.379-1.134,0.918-1.491,1.6
				c-0.353,0.678-0.528,1.428-0.519,2.229c0.009,1,0.298,1.878,0.856,2.612c0.74,0.981,1.785,1.479,3.105,1.479h0.055
				c0.749-0.008,1.403-0.188,1.949-0.532c0.542-0.343,1.018-0.882,1.414-1.601l0.045-0.082l0.068-0.123l-0.119-0.076l-0.335-0.213
				l-0.121-0.076l-0.082,0.117l-0.055,0.077c-0.428,0.604-0.818,1.011-1.161,1.208c-0.343,0.195-0.745,0.294-1.229,0.299
				c-0.505,0-0.964-0.119-1.362-0.354c-0.402-0.239-0.709-0.591-0.913-1.045c-0.212-0.474-0.323-1.044-0.33-1.698
				c-0.009-0.801,0.095-1.477,0.312-2.012c0.208-0.514,0.497-0.894,0.859-1.127c0.369-0.236,0.784-0.355,1.27-0.361
				c0.532,0,0.996,0.15,1.376,0.445c0.393,0.305,0.707,0.825,0.932,1.547l0.022,0.072l0.034,0.105l0.111-0.002l0.356-0.002
				l0.161-0.002l-0.013-0.16l-0.219-2.799L64.365-81.347L64.365-81.347z M64.9-77.438h-0.055c-0.749,0.008-1.403,0.188-1.949,0.532
				c-0.542,0.343-1.018,0.882-1.414,1.601l-0.045,0.082l-0.068,0.123l0.119,0.076l0.335,0.213l0.121,0.076l0.082-0.117l0.055-0.077
				c0.428-0.604,0.818-1.011,1.161-1.208c0.343-0.195,0.745-0.294,1.229-0.299c0.505,0,0.964,0.119,1.362,0.354
				c0.402,0.239,0.709,0.591,0.913,1.045c0.212,0.474,0.323,1.044,0.33,1.698c0.009,0.801-0.095,1.477-0.312,2.012
				c-0.208,0.514-0.497,0.894-0.859,1.127c-0.369,0.236-0.784,0.355-1.27,0.361c-0.532,0-0.996-0.15-1.376-0.445
				c-0.393-0.305-0.707-0.825-0.932-1.547l-0.022-0.072l-0.034-0.105l-0.111,0.002l-0.356,0.002l-0.161,0.002l0.013,0.16
				l0.219,2.799l0.011,0.141l0.14-0.002l0.37-0.004h0.12l0.025-0.117l0.017-0.078c0.029-0.133,0.078-0.238,0.141-0.306
				c0.022-0.022,0.049-0.033,0.088-0.034c-0.003,0,0.051,0.007,0.224,0.095c0.571,0.28,1.144,0.415,1.752,0.415
				c0.755-0.008,1.458-0.204,2.09-0.584c0.633-0.379,1.134-0.918,1.491-1.6c0.353-0.678,0.528-1.428,0.519-2.229
				c-0.009-1-0.298-1.878-0.856-2.612C67.266-76.94,66.221-77.438,64.9-77.438L64.9-77.438z"/>
		</g>
		<g>
			<path fill="#FFFFFF" d="M16.125-75.125c0,4.418-3.582,8-8,8s-8-3.582-8-8s3.582-8,8-8S16.125-79.543,16.125-75.125z"/>
			<path fill="#000022" d="M8.125-83.125c-4.418,0-8,3.582-8,8s3.582,8,8,8s8-3.582,8-8S12.543-83.125,8.125-83.125z M6.35-72.962
				c-1.271,0-2.276-0.478-2.986-1.42c-0.539-0.709-0.816-1.557-0.826-2.522c-0.008-0.777,0.161-1.503,0.502-2.158
				c0.343-0.656,0.826-1.175,1.435-1.541c0.609-0.365,1.286-0.555,2.012-0.563h0.001c0.589,0,1.145,0.135,1.685,0.399
				c0.189,0.096,0.265,0.11,0.293,0.11c0.077-0.001,0.141-0.027,0.196-0.081c0.082-0.088,0.143-0.215,0.178-0.376l0.017-0.078
				l0.37-0.003l0.219,2.799l-0.356,0.003l-0.022-0.07c-0.234-0.753-0.565-1.298-0.983-1.622c-0.407-0.315-0.901-0.477-1.47-0.477
				c-0.517,0.007-0.961,0.137-1.349,0.387c-0.389,0.25-0.697,0.652-0.917,1.196c-0.224,0.553-0.332,1.249-0.322,2.069
				c0.006,0.676,0.122,1.267,0.343,1.758c0.217,0.482,0.544,0.857,0.973,1.112c0.421,0.249,0.906,0.376,1.44,0.376
				c0.516-0.006,0.941-0.113,1.302-0.319c0.362-0.208,0.768-0.629,1.208-1.251l0.055-0.078l0.335,0.213l-0.045,0.082
				c-0.384,0.697-0.842,1.217-1.363,1.546c-0.522,0.33-1.151,0.501-1.869,0.509H6.35z M13.21-71.188
				c-0.343,0.656-0.826,1.175-1.435,1.541c-0.609,0.365-1.286,0.555-2.012,0.563H9.763c-0.589,0-1.145-0.135-1.685-0.399
				c-0.189-0.096-0.265-0.11-0.293-0.11c-0.077,0.001-0.141,0.027-0.196,0.081c-0.082,0.088-0.143,0.215-0.178,0.376l-0.017,0.078
				l-0.37,0.003l-0.219-2.799l0.356-0.003l0.022,0.07c0.234,0.753,0.565,1.298,0.983,1.622c0.407,0.315,0.901,0.477,1.47,0.477
				c0.517-0.007,0.961-0.137,1.349-0.387c0.389-0.25,0.697-0.652,0.917-1.196c0.224-0.553,0.332-1.249,0.322-2.069
				c-0.006-0.676-0.122-1.267-0.343-1.758c-0.217-0.482-0.544-0.857-0.973-1.112c-0.421-0.249-0.906-0.376-1.44-0.376
				c-0.516,0.006-0.941,0.113-1.302,0.319c-0.362,0.208-0.768,0.629-1.208,1.251l-0.055,0.078l-0.335-0.213l0.045-0.082
				c0.384-0.697,0.842-1.217,1.363-1.546c0.522-0.33,1.151-0.501,1.869-0.509H9.9c1.271,0,2.276,0.478,2.986,1.42
				c0.539,0.709,0.816,1.557,0.826,2.522C13.721-72.568,13.552-71.843,13.21-71.188z"/>
			<path fill="none" stroke="#FFFFFF" stroke-width="0.25" stroke-miterlimit="10" d="M16.125-75.125c0,4.418-3.582,8-8,8
				s-8-3.582-8-8s3.582-8,8-8S16.125-79.543,16.125-75.125z"/>
			
				<linearGradient id="SVGID_5_" gradientUnits="userSpaceOnUse" x1="8.125" y1="-16063.0967" x2="8.125" y2="-16050.6533" gradientTransform="matrix(1 0 0 -1 0 -16132)">
				<stop  offset="0" style="stop-color:#818595"/>
				<stop  offset="1" style="stop-color:#161A36"/>
			</linearGradient>
			<path fill="url(#SVGID_5_)" d="M9.226-81.194l0.219,2.799l-0.356,0.003l-0.022-0.07c-0.234-0.753-0.565-1.298-0.983-1.622
				c-0.407-0.315-0.901-0.477-1.47-0.477c-0.517,0.007-0.961,0.137-1.349,0.387c-0.389,0.25-0.697,0.652-0.917,1.196
				c-0.224,0.553-0.332,1.249-0.322,2.069c0.006,0.676,0.122,1.267,0.343,1.758c0.217,0.482,0.544,0.857,0.973,1.112
				c0.421,0.249,0.906,0.376,1.44,0.376c0.516-0.006,0.941-0.113,1.302-0.319c0.362-0.208,0.768-0.629,1.208-1.251l0.055-0.078
				l0.335,0.213l-0.045,0.082c-0.384,0.697-0.842,1.217-1.363,1.546c-0.522,0.33-1.151,0.501-1.869,0.509H6.35
				c-1.271,0-2.276-0.478-2.986-1.42c-0.539-0.709-0.816-1.557-0.826-2.522c-0.008-0.777,0.161-1.503,0.502-2.158
				c0.343-0.656,0.826-1.175,1.435-1.541c0.609-0.365,1.286-0.555,2.012-0.563h0.001c0.589,0,1.145,0.135,1.685,0.399
				c0.189,0.096,0.265,0.11,0.293,0.11c0.077-0.001,0.141-0.027,0.196-0.081c0.082-0.088,0.143-0.215,0.178-0.376l0.017-0.078
				L9.226-81.194 M9.9-77.288c1.271,0,2.276,0.478,2.986,1.42c0.539,0.709,0.816,1.557,0.826,2.522
				c0.008,0.777-0.161,1.503-0.502,2.158c-0.343,0.656-0.826,1.175-1.435,1.541c-0.609,0.365-1.286,0.555-2.012,0.563H9.763
				c-0.589,0-1.145-0.135-1.685-0.399c-0.189-0.096-0.265-0.11-0.293-0.11c-0.077,0.001-0.141,0.027-0.196,0.081
				c-0.082,0.088-0.143,0.215-0.178,0.376l-0.017,0.078l-0.37,0.003l-0.219-2.799l0.356-0.003l0.022,0.07
				c0.234,0.753,0.565,1.298,0.983,1.622c0.407,0.315,0.901,0.477,1.47,0.477c0.517-0.007,0.961-0.137,1.349-0.387
				c0.389-0.25,0.697-0.652,0.917-1.196c0.224-0.553,0.332-1.249,0.322-2.069c-0.006-0.676-0.122-1.267-0.343-1.758
				c-0.217-0.482-0.544-0.857-0.973-1.112c-0.421-0.249-0.906-0.376-1.44-0.376c-0.516,0.006-0.941,0.113-1.302,0.319
				c-0.362,0.208-0.768,0.629-1.208,1.251l-0.055,0.078l-0.335-0.213l0.045-0.082c0.384-0.697,0.842-1.217,1.363-1.546
				c0.522-0.33,1.151-0.501,1.869-0.509H9.9 M9.365-81.347l-0.14,0.002l-0.37,0.004h-0.12L8.71-81.224l-0.017,0.078
				c-0.029,0.133-0.078,0.238-0.141,0.306c-0.022,0.022-0.049,0.033-0.088,0.034c0.003,0-0.051-0.007-0.224-0.095
				c-0.571-0.28-1.144-0.415-1.752-0.415c-0.755,0.008-1.458,0.204-2.09,0.584c-0.633,0.379-1.134,0.918-1.491,1.6
				c-0.353,0.678-0.528,1.428-0.519,2.229c0.009,1,0.298,1.878,0.856,2.612c0.74,0.981,1.785,1.479,3.105,1.479h0.055
				c0.749-0.008,1.403-0.188,1.949-0.532c0.542-0.343,1.018-0.882,1.414-1.601l0.045-0.082l0.068-0.123l-0.119-0.076l-0.335-0.213
				l-0.121-0.076l-0.082,0.117L9.169-75.32c-0.428,0.604-0.818,1.011-1.161,1.208c-0.343,0.195-0.745,0.294-1.229,0.299
				c-0.505,0-0.964-0.119-1.362-0.354c-0.402-0.239-0.709-0.591-0.913-1.045c-0.212-0.474-0.323-1.044-0.33-1.698
				c-0.009-0.801,0.095-1.477,0.312-2.012c0.208-0.514,0.497-0.894,0.859-1.127c0.369-0.236,0.784-0.355,1.27-0.361
				c0.532,0,0.996,0.15,1.376,0.445c0.393,0.305,0.707,0.825,0.932,1.547l0.022,0.072l0.034,0.105l0.111-0.002l0.356-0.002
				l0.161-0.002l-0.013-0.16l-0.219-2.799L9.365-81.347L9.365-81.347z M9.9-77.438H9.846c-0.749,0.008-1.403,0.188-1.949,0.532
				c-0.542,0.343-1.018,0.882-1.414,1.601l-0.045,0.082l-0.068,0.123l0.119,0.076l0.335,0.213l0.121,0.076l0.082-0.117l0.055-0.077
				c0.428-0.604,0.818-1.011,1.161-1.208c0.343-0.195,0.745-0.294,1.229-0.299c0.505,0,0.964,0.119,1.362,0.354
				c0.402,0.239,0.709,0.591,0.913,1.045c0.212,0.474,0.323,1.044,0.33,1.698c0.009,0.801-0.095,1.477-0.312,2.012
				c-0.208,0.514-0.497,0.894-0.859,1.127c-0.369,0.236-0.784,0.355-1.27,0.361c-0.532,0-0.996-0.15-1.376-0.445
				c-0.393-0.305-0.707-0.825-0.932-1.547l-0.022-0.072l-0.034-0.105l-0.111,0.002l-0.356,0.002l-0.161,0.002l0.013,0.16
				l0.219,2.799l0.011,0.141l0.14-0.002l0.37-0.004h0.12l0.025-0.117l0.017-0.078c0.029-0.133,0.078-0.238,0.141-0.306
				c0.022-0.022,0.049-0.033,0.088-0.034c-0.003,0,0.051,0.007,0.224,0.095c0.571,0.28,1.144,0.415,1.752,0.415
				c0.755-0.008,1.458-0.204,2.09-0.584c0.633-0.379,1.134-0.918,1.491-1.6c0.353-0.678,0.528-1.428,0.519-2.229
				c-0.009-1-0.298-1.878-0.856-2.612C12.266-76.94,11.221-77.438,9.9-77.438L9.9-77.438z"/>
		</g>
	</g>
</pattern>
<g id="Layer_2">
</g>
<g id="Layer_3">
	<g>
		<path fill="#000022" d="M681.5,73.843c262.577,0,501.772,22.784,681.547,60.141h0.118V0H-0.165v133.983h0.117
			C179.727,96.627,418.923,73.843,681.5,73.843z"/>
		<pattern  id="SVGID_6_" xlink:href="#Mezzotint_2" patternTransform="matrix(1 0 0 1 0 36.749)">
		</pattern>
		<path opacity="0.1" fill="url(#SVGID_6_)" d="M681.5,73.843c262.577,0,501.772,22.784,681.547,60.141h0.118V0H-0.165v133.983
			h0.117C179.727,96.627,418.923,73.843,681.5,73.843z"/>
		<pattern  id="SVGID_7_" xlink:href="#New_Pattern_2" patternTransform="matrix(1 0 0 1 0 -10.2583)">
		</pattern>
		<path fill="url(#SVGID_7_)" d="M681.5,73.843c262.577,0,501.772,22.784,681.547,60.141h0.118V0H-0.165v133.983h0.117
			C179.727,96.627,418.923,73.843,681.5,73.843z"/>
	</g>
</g>
</svg>
